<!-- Generated by IcoMoon.io -->
<svg version="1.1" xmlns="http://www.w3.org/2000/svg" width="32" height="32" viewBox="0 0 32 32">
<title>cyc_con-guida</title>
<path d="M10.504 12.673l2.839 2.063-1.085 3.338c-0.018 0.054-0.029 0.116-0.029 0.181 0 0.324 0.262 0.586 0.586 0.586 0.129 0 0.249-0.042 0.346-0.113l-0.002 0.001 2.839-2.063 2.839 2.063c0.095 0.070 0.215 0.112 0.344 0.112 0.324 0 0.586-0.262 0.586-0.586 0-0.065-0.010-0.127-0.030-0.185l0.001 0.004-1.085-3.338 2.839-2.063c0.147-0.108 0.242-0.28 0.242-0.474 0-0.323-0.262-0.586-0.586-0.586l-3.51-0.001-1.085-3.338c-0.079-0.237-0.298-0.405-0.557-0.405-0 0-0 0-0 0v0c-0.259 0-0.478 0.168-0.556 0.401l-0.001 0.004-1.084 3.338-3.51-0.001c-0 0-0 0-0 0-0.324 0-0.586 0.262-0.586 0.586 0 0.194 0.094 0.366 0.24 0.473l0.002 0.001zM25.187 5.209h-8.601v-1.047c0-0.324-0.262-0.586-0.586-0.586s-0.586 0.262-0.586 0.586v0 1.047h-8.601c-0 0-0 0-0 0-0.323 0-0.586 0.262-0.586 0.586 0 0 0 0 0 0v0 15.383c0 0.324 0.262 0.586 0.586 0.586v0h8.601v5.487h-1.074c-0.32 0.004-0.579 0.265-0.579 0.586s0.258 0.582 0.578 0.586h3.32c0.32-0.004 0.579-0.265 0.579-0.586s-0.258-0.582-0.578-0.586h-1.074v-5.487h8.601c0.323-0 0.586-0.262 0.586-0.586v0-15.383c0-0.324-0.262-0.586-0.586-0.586v0zM24.601 20.593h-17.202v-14.212h17.202z"></path>
</svg>
