<!-- Generated by IcoMoon.io -->
<svg version="1.1" xmlns="http://www.w3.org/2000/svg" width="32" height="32" viewBox="0 0 32 32">
<title>cyc_percorso-a-margherita</title>
<path d="M26.34 16.397c-0.8-0.397-1.853-0.615-2.958-0.615-1.135 0-2.684 0.226-3.947 0.576-0.628 0.162-1.175 0.377-1.689 0.648l0.042-0.020c1.753-2.022 2.972-4.151 3.63-6.345 0.163-0.504 0.256-1.084 0.256-1.686 0-3.134-2.541-5.675-5.675-5.675s-5.675 2.541-5.675 5.675c0 0.6 0.093 1.178 0.266 1.721l-0.011-0.040c0.66 2.198 1.879 4.327 3.631 6.349-0.471-0.25-1.018-0.464-1.592-0.614l-0.054-0.012c-1.263-0.349-2.812-0.575-3.947-0.575-2.509 0-4.4 1.066-4.4 2.478 0 0.74 0.512 1.401 1.443 1.863 0.8 0.397 1.85 0.615 2.957 0.615h0.001c1.135 0 2.684-0.226 3.947-0.576 0.121-0.034 0.238-0.068 0.351-0.103-0.086 0.081-0.173 0.165-0.262 0.254-0.926 0.927-1.885 2.164-2.444 3.152-0.545 0.964-0.872 1.986-0.921 2.877-0.056 1.037 0.267 1.809 0.911 2.173 0.226 0.129 0.497 0.205 0.786 0.205 0.005 0 0.011-0 0.016-0h-0.001c1.145 0 2.533-1.068 3.522-2.816 0.559-0.987 1.125-2.447 1.442-3.719 0.013-0.050 0.023-0.097 0.034-0.146 0.012 0.049 0.022 0.096 0.034 0.146 0.317 1.271 0.884 2.731 1.442 3.719 0.989 1.748 2.377 2.816 3.522 2.816 0.005 0 0.010 0 0.016 0 0.289 0 0.559-0.076 0.794-0.209l-0.008 0.004c0.644-0.364 0.967-1.136 0.911-2.173-0.048-0.891-0.375-1.913-0.921-2.877-0.559-0.987-1.518-2.225-2.444-3.152-0.089-0.089-0.175-0.173-0.261-0.253 0.112 0.035 0.229 0.069 0.35 0.102 1.263 0.349 2.811 0.575 3.946 0.575h0.001c2.509 0 4.4-1.066 4.4-2.478 0-0.739-0.512-1.401-1.442-1.862zM12.013 19.097c-1.114 0.285-2.447 0.469-3.395 0.469-0.919 0-1.805-0.179-2.437-0.493-0.488-0.242-0.792-0.554-0.792-0.813 0-0.533 1.258-1.306 3.229-1.307h0.001c0.948 0 2.28 0.184 3.394 0.469 1.421 0.363 1.866 0.711 1.988 0.837-0.122 0.127-0.567 0.474-1.988 0.837zM14.766 22.143c-0.3 1.11-0.796 2.361-1.263 3.186-0.97 1.716-2.263 2.43-2.727 2.168-0.226-0.128-0.347-0.545-0.318-1.089 0.038-0.704 0.319-1.566 0.771-2.364 0.467-0.825 1.283-1.895 2.080-2.724 1.016-1.058 1.537-1.275 1.707-1.319 0.050 0.169 0.133 0.727-0.25 2.143zM16 17.2c-2.135-2.189-3.58-4.509-4.3-6.908-0.129-0.4-0.204-0.861-0.204-1.338 0-2.487 2.016-4.503 4.503-4.503s4.503 2.016 4.503 4.503c0 0.48-0.075 0.942-0.214 1.376l0.009-0.032c-0.718 2.394-2.163 4.714-4.298 6.902zM20.77 24.043c0.451 0.798 0.732 1.66 0.771 2.364 0.030 0.544-0.092 0.962-0.318 1.089-0.062 0.033-0.136 0.053-0.214 0.053-0.005 0-0.010-0-0.015-0l0.001 0c-0.576 0-1.658-0.735-2.498-2.22-0.467-0.825-0.962-2.075-1.263-3.186-0.383-1.416-0.3-1.974-0.25-2.143 0.17 0.044 0.691 0.261 1.707 1.319 0.797 0.829 1.613 1.899 2.080 2.724zM23.382 19.566c-0.945 0-2.281-0.184-3.395-0.469-1.421-0.363-1.866-0.711-1.988-0.837 0.122-0.126 0.567-0.474 1.988-0.837 1.114-0.285 2.447-0.469 3.395-0.47 0.917 0 1.805 0.18 2.437 0.493 0.488 0.242 0.792 0.554 0.792 0.813 0 0.533-1.258 1.306-3.229 1.307zM16 6.437c-0 0-0 0-0 0-1.325 0-2.4 1.074-2.4 2.4s1.074 2.4 2.4 2.4c1.325 0 2.4-1.074 2.4-2.4 0-0 0-0 0-0v0c0-1.325-1.074-2.4-2.4-2.4v0z"></path>
</svg>
