<!-- Generated by IcoMoon.io -->
<svg version="1.1" xmlns="http://www.w3.org/2000/svg" width="32" height="32" viewBox="0 0 32 32">
<title>cyc_difficolta1</title>
<path d="M10.826 11.791c0.043 0.065 0.097 0.119 0.16 0.161l0.002 0.001c0.060 0.040 0.131 0.071 0.207 0.087l0.004 0.001c0.034 0.007 0.074 0.011 0.114 0.011s0.080-0.004 0.118-0.012l-0.004 0.001c0.080-0.017 0.15-0.047 0.212-0.089l-0.002 0.001c0.127-0.086 0.217-0.216 0.248-0.369l0.001-0.004c0.007-0.034 0.011-0.074 0.011-0.114s-0.004-0.080-0.012-0.118l0.001 0.004c-0.048-0.232-0.228-0.412-0.456-0.459l-0.004-0.001c-0.034-0.007-0.074-0.011-0.114-0.011s-0.080 0.004-0.118 0.012l0.004-0.001c-0.042 0.009-0.079 0.020-0.114 0.035l0.004-0.001c-0.039 0.016-0.072 0.034-0.103 0.055l0.002-0.001c-0.065 0.043-0.119 0.097-0.161 0.16l-0.001 0.002c-0.040 0.060-0.071 0.131-0.087 0.206l-0.001 0.004c-0.007 0.034-0.011 0.074-0.011 0.114 0 0.081 0.016 0.158 0.046 0.228l-0.001-0.004c0.016 0.039 0.035 0.072 0.056 0.103l-0.001-0.002zM8.207 15.384c0.033-0.022 0.062-0.046 0.089-0.073v0c0.027-0.027 0.051-0.056 0.072-0.087l0.001-0.002c0.062-0.091 0.098-0.204 0.098-0.325s-0.037-0.234-0.1-0.327l0.001 0.002c-0.043-0.065-0.097-0.119-0.16-0.161l-0.002-0.001c-0.029-0.019-0.062-0.037-0.097-0.052l-0.004-0.002c-0.031-0.013-0.068-0.025-0.106-0.033l-0.004-0.001c-0.034-0.007-0.074-0.011-0.114-0.011s-0.080 0.004-0.118 0.012l0.004-0.001c-0.042 0.008-0.079 0.020-0.114 0.035l0.004-0.001c-0.039 0.016-0.072 0.034-0.103 0.055l0.002-0.001c-0.096 0.064-0.17 0.154-0.214 0.259l-0.001 0.004c-0.013 0.031-0.025 0.068-0.033 0.106l-0.001 0.004c-0.007 0.034-0.011 0.074-0.011 0.114s0.004 0.080 0.012 0.118l-0.001-0.004c0.009 0.042 0.020 0.079 0.035 0.114l-0.001-0.004c0.046 0.109 0.12 0.199 0.214 0.262l0.002 0.001c0.029 0.020 0.062 0.038 0.097 0.052l0.004 0.001c0.031 0.013 0.068 0.025 0.106 0.033l0.004 0.001c0.034 0.007 0.074 0.011 0.114 0.011s0.080-0.004 0.118-0.012l-0.004 0.001c0.042-0.008 0.079-0.020 0.114-0.035l-0.004 0.001c0.039-0.016 0.072-0.034 0.103-0.055l-0.002 0.001zM7.167 19.36c-0.016-0.039-0.034-0.072-0.055-0.103l0.001 0.002c-0.065-0.096-0.154-0.17-0.259-0.214l-0.004-0.001c-0.031-0.013-0.068-0.025-0.106-0.033l-0.004-0.001c-0.034-0.007-0.074-0.011-0.114-0.011s-0.080 0.004-0.118 0.012l0.004-0.001c-0.042 0.009-0.079 0.020-0.114 0.035l0.004-0.001c-0.039 0.016-0.072 0.034-0.103 0.055l0.002-0.001c-0.065 0.043-0.119 0.097-0.161 0.16l-0.001 0.002c-0.019 0.029-0.037 0.062-0.052 0.097l-0.001 0.004c-0.013 0.031-0.025 0.068-0.033 0.106l-0.001 0.004c-0.007 0.034-0.011 0.074-0.011 0.114s0.004 0.080 0.012 0.118l-0.001-0.004c0.017 0.080 0.047 0.151 0.089 0.213l-0.001-0.002c0.043 0.065 0.097 0.119 0.16 0.16l0.002 0.001c0.060 0.041 0.131 0.071 0.206 0.087l0.004 0.001c0.034 0.007 0.074 0.011 0.114 0.011s0.080-0.004 0.118-0.012l-0.004 0.001c0.042-0.009 0.079-0.020 0.114-0.035l-0.004 0.001c0.039-0.016 0.072-0.034 0.103-0.055l-0.002 0.001c0.065-0.043 0.119-0.097 0.161-0.16l0.001-0.002c0.040-0.060 0.071-0.131 0.087-0.207l0.001-0.004c0.007-0.034 0.011-0.074 0.011-0.114s-0.004-0.080-0.012-0.118l0.001 0.004c-0.008-0.042-0.020-0.079-0.034-0.114l0.001 0.004zM23.329 24.321h-14.657c-0.002-0-0.005-0-0.007-0-0.324 0-0.586 0.262-0.586 0.586s0.262 0.586 0.586 0.586c0.003 0 0.005-0 0.008-0h14.657c0.002 0 0.005 0 0.007 0 0.324 0 0.586-0.262 0.586-0.586s-0.262-0.586-0.586-0.586c-0.003 0-0.005 0-0.008 0h0zM20.201 11.791c0.022 0.033 0.047 0.063 0.073 0.089v0c0.027 0.027 0.056 0.051 0.087 0.072l0.002 0.001c0.091 0.062 0.204 0.099 0.325 0.099h0c0.081-0 0.158-0.017 0.228-0.046l-0.004 0.001c0.039-0.016 0.072-0.034 0.103-0.055l-0.002 0.001c0.065-0.043 0.119-0.097 0.161-0.16l0.001-0.002c0.040-0.060 0.071-0.131 0.087-0.206l0.001-0.004c0.007-0.034 0.011-0.074 0.011-0.114s-0.004-0.080-0.012-0.118l0.001 0.004c-0.009-0.042-0.020-0.079-0.035-0.114l0.001 0.004c-0.016-0.039-0.034-0.072-0.055-0.103l0.001 0.002c-0.043-0.065-0.097-0.119-0.16-0.161l-0.002-0.001c-0.060-0.040-0.131-0.071-0.207-0.087l-0.004-0.001c-0.034-0.007-0.074-0.011-0.114-0.011s-0.080 0.004-0.118 0.012l0.004-0.001c-0.080 0.016-0.15 0.047-0.212 0.089l0.002-0.001c-0.033 0.022-0.063 0.046-0.089 0.073v0c-0.053 0.053-0.096 0.116-0.125 0.186l-0.001 0.004c-0.013 0.031-0.025 0.068-0.033 0.106l-0.001 0.004c-0.007 0.034-0.011 0.074-0.011 0.114s0.004 0.080 0.012 0.118l-0.001-0.004c0.009 0.042 0.020 0.079 0.035 0.114l-0.001-0.004c0.016 0.038 0.034 0.071 0.054 0.102l-0.001-0.002zM25.247 10.338c-2.353-2.366-5.611-3.83-9.211-3.83-0.012 0-0.025 0-0.037 0h0.002c-7.211 0-13.077 5.867-13.077 13.077-0 0.008-0 0.018-0 0.028 0 2.014 0.459 3.921 1.279 5.621l-0.034-0.078c0.096 0.2 0.297 0.336 0.53 0.336 0.324 0 0.586-0.262 0.586-0.586 0-0.091-0.021-0.177-0.058-0.253l0.002 0.003c-0.716-1.477-1.134-3.213-1.134-5.046 0-0.009 0-0.018 0-0.028v0.001c0-6.575 5.33-11.905 11.905-11.905s11.905 5.33 11.905 11.905v0c0 0.008 0 0.017 0 0.026 0 1.833-0.418 3.569-1.164 5.117l0.031-0.071c-0.037 0.075-0.059 0.163-0.059 0.256 0 0.324 0.262 0.586 0.586 0.586 0.235 0 0.437-0.138 0.531-0.338l0.002-0.004c0.786-1.632 1.246-3.548 1.246-5.571 0-3.612-1.464-6.881-3.83-9.248l0 0zM25.915 19.362c-0.016-0.039-0.034-0.072-0.055-0.103l0.001 0.002c-0.043-0.065-0.097-0.119-0.16-0.161l-0.002-0.001c-0.029-0.020-0.062-0.038-0.097-0.052l-0.004-0.001c-0.066-0.028-0.143-0.045-0.224-0.045s-0.158 0.016-0.228 0.046l0.004-0.001c-0.039 0.016-0.072 0.034-0.103 0.055l0.002-0.001c-0.033 0.022-0.063 0.046-0.089 0.073l-0 0c-0.027 0.027-0.051 0.056-0.072 0.087l-0.001 0.002c-0.062 0.091-0.099 0.203-0.099 0.324 0 0.041 0.004 0.081 0.012 0.119l-0.001-0.004c0.016 0.080 0.047 0.15 0.089 0.212l-0.001-0.002c0.022 0.033 0.046 0.063 0.073 0.089l0 0c0.027 0.027 0.056 0.051 0.087 0.072l0.002 0.001c0.029 0.020 0.062 0.038 0.097 0.052l0.004 0.001c0.031 0.013 0.068 0.025 0.106 0.033l0.004 0.001c0.034 0.007 0.074 0.012 0.114 0.012s0.080-0.004 0.118-0.012l-0.004 0.001c0.042-0.009 0.079-0.020 0.114-0.035l-0.004 0.001c0.039-0.016 0.072-0.034 0.103-0.055l-0.002 0.001c0.065-0.043 0.119-0.097 0.16-0.16l0.001-0.002c0.041-0.060 0.071-0.131 0.087-0.206l0.001-0.004c0.007-0.034 0.011-0.074 0.011-0.114s-0.004-0.080-0.012-0.118l0.001 0.004c-0.008-0.043-0.020-0.080-0.035-0.116l0.001 0.004zM24.66 14.674c-0.031-0.074-0.074-0.137-0.127-0.19v0c-0.027-0.027-0.056-0.051-0.087-0.072l-0.002-0.001c-0.060-0.040-0.131-0.071-0.206-0.087l-0.004-0.001c-0.034-0.007-0.074-0.011-0.114-0.011s-0.080 0.004-0.118 0.012l0.004-0.001c-0.080 0.016-0.151 0.047-0.213 0.089l0.002-0.001c-0.065 0.043-0.119 0.097-0.161 0.16l-0.001 0.002c-0.040 0.060-0.071 0.131-0.087 0.207l-0.001 0.004c-0.007 0.034-0.011 0.074-0.011 0.114s0.004 0.080 0.012 0.118l-0.001-0.004c0.017 0.080 0.047 0.15 0.089 0.212l-0.001-0.002c0.022 0.033 0.046 0.063 0.073 0.089l0 0c0.027 0.027 0.056 0.051 0.087 0.072l0.002 0.001c0.060 0.040 0.131 0.071 0.207 0.087l0.004 0.001c0.034 0.007 0.074 0.011 0.114 0.011s0.080-0.004 0.118-0.012l-0.004 0.001c0.118-0.024 0.22-0.081 0.3-0.16l-0 0c0.027-0.027 0.051-0.056 0.072-0.087l0.001-0.002c0.020-0.029 0.038-0.062 0.052-0.097l0.001-0.004c0.013-0.031 0.025-0.068 0.033-0.106l0.001-0.004c0.007-0.034 0.011-0.074 0.011-0.114s-0.004-0.080-0.012-0.118l0.001 0.004c-0.009-0.042-0.021-0.079-0.036-0.114l0.002 0.004zM15.513 10.535c0.043 0.065 0.097 0.119 0.16 0.161l0.002 0.001c0.060 0.040 0.131 0.071 0.206 0.087l0.004 0.001c0.034 0.007 0.074 0.011 0.114 0.011s0.080-0.004 0.118-0.012l-0.004 0.001c0.080-0.017 0.15-0.047 0.212-0.089l-0.002 0.001c0.065-0.043 0.119-0.097 0.161-0.16l0.001-0.002c0.061-0.091 0.098-0.204 0.098-0.325 0-0.162-0.065-0.308-0.171-0.414v0c-0.027-0.027-0.056-0.051-0.087-0.072l-0.002-0.001c-0.060-0.040-0.131-0.071-0.206-0.087l-0.004-0.001c-0.034-0.007-0.074-0.011-0.114-0.011s-0.080 0.004-0.118 0.012l0.004-0.001c-0.080 0.017-0.15 0.047-0.212 0.089l0.002-0.001c-0.065 0.043-0.119 0.097-0.161 0.16l-0.001 0.002c-0.020 0.029-0.038 0.062-0.052 0.097l-0.001 0.004c-0.013 0.031-0.025 0.068-0.033 0.106l-0.001 0.004c-0.007 0.034-0.011 0.074-0.011 0.114s0.004 0.080 0.012 0.118l-0.001-0.004c0.016 0.080 0.047 0.15 0.089 0.212l-0.001-0.002zM13.628 19.585c0 0 0 0 0 0 0 1.31 1.062 2.372 2.372 2.372s2.372-1.062 2.372-2.372c0-0.447-0.124-0.865-0.339-1.222l0.006 0.011 3.395-3.395c0.106-0.106 0.172-0.252 0.172-0.414 0-0.324-0.262-0.586-0.586-0.586-0.162 0-0.308 0.066-0.414 0.172l-3.395 3.395c-0.346-0.209-0.764-0.332-1.211-0.332-1.31 0-2.373 1.062-2.373 2.373v0zM15.151 18.736c0.217-0.217 0.517-0.352 0.849-0.352 0.663 0 1.201 0.538 1.201 1.201s-0.538 1.201-1.201 1.201c-0.663 0-1.2-0.537-1.201-1.2v0c0-0.001 0-0.002 0-0.003 0-0.331 0.134-0.63 0.352-0.846l0-0z"></path>
</svg>
