<!-- Generated by IcoMoon.io -->
<svg version="1.1" xmlns="http://www.w3.org/2000/svg" width="32" height="32" viewBox="0 0 32 32">
<title>cyc_bici-da-corsa</title>
<path d="M24.686 13.167c-0.001 0-0.003 0-0.004 0-0.636 0-1.248 0.1-1.822 0.285l0.042-0.012-2.063-4.711h2.589c0.002-0 0.005-0 0.008-0 0.342 0 0.62 0.278 0.62 0.62s-0.278 0.62-0.62 0.62c-0.003 0-0.005-0-0.008-0h0c-0.32 0.004-0.579 0.265-0.579 0.586s0.258 0.582 0.578 0.586h0c0.989 0 1.791-0.802 1.791-1.791s-0.802-1.791-1.791-1.791v0h-3.485c0 0 0 0 0 0-0.324 0-0.586 0.262-0.586 0.586 0 0.085 0.018 0.166 0.051 0.239l-0.001-0.004 0.91 2.077-7.808 0.169-0.702-1.819c-0.051-0.131-0.15-0.233-0.274-0.288l-0.003-0.001c0.668-0.207 1.393-0.432 1.445-0.448 0.24-0.077 0.412-0.298 0.412-0.559 0-0.323-0.262-0.585-0.585-0.586h-3.707c-0.323 0-0.586 0.262-0.586 0.586 0 0.036 0.003 0.070 0.009 0.104l-0.001-0.004c0.16 0.919 0.994 1.263 1.66 1.279h0.019c0.083-0 0.163-0.013 0.239-0.036l-0.006 0.002c0.069-0.021 0.236-0.072 0.453-0.138-0.050 0.079-0.080 0.175-0.080 0.278 0 0.067 0.013 0.131 0.036 0.19l-0.001-0.004 0.736 1.908-1.65 2.681c-0.762-0.379-1.659-0.601-2.608-0.601-3.289 0-5.955 2.666-5.955 5.955s2.666 5.955 5.955 5.955c2.932 0 5.37-2.119 5.864-4.91l0.005-0.036c0.307 0.022 0.596 0.042 0.855 0.060h0.002c0.187 0.477 0.611 0.823 1.124 0.894l0.007 0.001 0.366 1.202c0.126 0.41 0.501 0.703 0.944 0.703 0.002 0 0.003 0 0.005 0h0.78c0.324 0 0.586-0.262 0.586-0.586s-0.262-0.586-0.586-0.586h-0.647l-0.327-1.075c0.294-0.259 0.479-0.637 0.479-1.057 0-0.248-0.064-0.481-0.177-0.684l0.004 0.007 4.712-6.291 0.517 1.181c-1.855 1.033-3.089 2.982-3.089 5.219 0 3.288 2.665 5.953 5.953 5.953s5.953-2.665 5.953-5.953c0-3.288-2.665-5.953-5.953-5.953-0.001 0-0.002 0-0.003 0h0zM7.314 23.906c-0.001 0-0.003 0-0.004 0-2.642 0-4.784-2.142-4.784-4.784s2.142-4.784 4.784-4.784c0.723 0 1.408 0.16 2.022 0.447l-0.029-0.012-2.488 4.042c-0.002 0.003-0.003 0.006-0.005 0.009q-0.014 0.024-0.027 0.050c-0.002 0.004-0.004 0.008-0.006 0.012-0.008 0.018-0.017 0.039-0.024 0.062l-0.001 0.004c0 0.001-0.001 0.003-0.001 0.004-0.005 0.016-0.010 0.037-0.014 0.058l-0.001 0.004c-0.001 0.006-0.002 0.013-0.003 0.020q-0.003 0.024-0.005 0.048c0 0.008-0.001 0.015-0.001 0.023 0 0.005-0.001 0.009-0.001 0.014v1.020c0 0.324 0.262 0.586 0.586 0.586s0.586-0.262 0.586-0.586v0-0.39c0.747 0.055 2.059 0.15 3.374 0.244l0.734 0.053c-0.451 2.212-2.38 3.854-4.693 3.857h-0zM8.318 18.608l1.982-3.22c1.038 0.833 1.718 2.076 1.791 3.48l0.001 0.012c-1.194-0.085-2.551-0.183-3.774-0.272zM14.112 19.023c-0.254-0.018-0.539-0.038-0.847-0.059-0.051-1.867-0.955-3.513-2.334-4.568l-0.014-0.011 1.134-1.841 2.307 6.148c-0.095 0.095-0.177 0.204-0.242 0.324l-0.004 0.007zM15.658 18.309c-0.058-0.013-0.128-0.023-0.199-0.028l-0.004-0-2.437-6.496 7.65-0.166zM24.686 23.906c-0 0-0.001 0-0.002 0-2.641 0-4.782-2.141-4.782-4.782 0-1.762 0.953-3.302 2.372-4.132l0.023-0.012 1.852 4.231c0.092 0.21 0.298 0.355 0.538 0.355 0.324 0 0.586-0.262 0.586-0.586 0-0.087-0.019-0.169-0.052-0.242l0.002 0.004-1.847-4.218c0.393-0.116 0.844-0.183 1.311-0.183 2.642 0 4.784 2.142 4.784 4.784s-2.142 4.784-4.784 4.784c-0 0-0 0-0 0h0z"></path>
</svg>
