<!-- Generated by IcoMoon.io -->
<svg version="1.1" xmlns="http://www.w3.org/2000/svg" width="32" height="32" viewBox="0 0 32 32">
<title>cyc_trekking2</title>
<path d="M23.822 12.815c-0.161-0.161-0.362-0.282-0.587-0.346l-0.010-0.002v-2.423c0-0.324-0.262-0.586-0.586-0.586s-0.586 0.262-0.586 0.586v2.371h-1.364c-0 0-0.001 0-0.001 0-0.134 0-0.251-0.069-0.318-0.174l-0.001-0.002-1.709-2.681c-0.002-0.004-0.005-0.007-0.008-0.011 0.215 0.070 0.463 0.11 0.719 0.11 1.333 0 2.414-1.081 2.414-2.414 0-0.667-0.27-1.27-0.707-1.707v0c-0.437-0.438-1.041-0.708-1.708-0.708-1.333 0-2.414 1.081-2.414 2.414 0 0.521 0.165 1.004 0.446 1.398l-0.005-0.007c-0.168-0.047-0.361-0.074-0.561-0.074-0.416 0-0.805 0.117-1.136 0.321l0.009-0.005 0.055-0.114c0.14-0.284 0.222-0.619 0.222-0.972 0-1.238-1.004-2.242-2.242-2.242-0.885 0-1.65 0.513-2.015 1.257l-0.006 0.013-1.262 2.622c-0.59 0.006-1.099 0.35-1.342 0.847l-0.004 0.009-1.191 2.478c-0.094 0.191-0.149 0.417-0.149 0.655 0 0.597 0.345 1.113 0.847 1.36l0.009 0.004 2.073 0.998c0.192 0.094 0.417 0.15 0.656 0.15 0.597 0 1.113-0.346 1.359-0.848l0.004-0.009 0.093-0.193c-0.004 0.074-0.006 0.161-0.006 0.248 0 0.249 0.019 0.493 0.056 0.732l-0.003-0.027-0.338 3.772c-0.037 0.405-0.187 0.77-0.418 1.068l0.004-0.005-2.999 3.916c-0.206 0.238-0.331 0.55-0.331 0.891 0 0.754 0.611 1.366 1.366 1.366 0.406 0 0.771-0.177 1.021-0.458l0.001-0.001 3.635-4.118c0.371-0.417 0.625-0.946 0.707-1.53l0.002-0.016 0.101-0.734 1.171 1.235c0.207 0.217 0.334 0.512 0.334 0.837 0 0.001 0 0.001 0 0.002v-0 3.682c0 0.725 0.539 1.346 1.227 1.415q0.069 0.007 0.137 0.007c0.001 0 0.002 0 0.003 0 0.754 0 1.366-0.612 1.366-1.366 0-0 0-0 0-0v0-5.177c-0-0.41-0.147-0.786-0.392-1.077l0.002 0.003-2.289-2.744c-0.202-0.24-0.324-0.553-0.324-0.894 0-0.187 0.037-0.365 0.104-0.528l-0.003 0.009 0.678-1.693 0.66 0.759c0.368 0.422 0.907 0.686 1.507 0.686 0 0 0 0 0 0h2.259v11.223c0 0.324 0.262 0.586 0.586 0.586s0.586-0.262 0.586-0.586v0-11.276c0.58-0.166 0.997-0.692 0.997-1.315 0-0.377-0.153-0.719-0.4-0.966v0zM19.373 5.61c0.902 0 1.633 0.731 1.633 1.633s-0.731 1.633-1.633 1.633c-0.902 0-1.633-0.731-1.633-1.633v0c-0-0.003-0-0.007-0-0.011 0-0.896 0.726-1.622 1.622-1.622 0.004 0 0.008 0 0.011 0h-0.001zM12.43 7.154c0.242-0.491 0.74-0.823 1.314-0.823 0.807 0 1.461 0.654 1.461 1.461 0 0.229-0.052 0.445-0.146 0.637l0.004-0.009-1.193 2.48-2.633-1.267zM12.022 14.742c-0.121 0.247-0.37 0.414-0.659 0.414-0.115 0-0.225-0.027-0.322-0.074l0.004 0.002-2.073-0.998c-0.247-0.121-0.414-0.371-0.414-0.659 0-0.115 0.027-0.224 0.074-0.321l-0.002 0.004 1.192-2.478c0.121-0.247 0.37-0.414 0.659-0.414 0.115 0 0.225 0.027 0.322 0.074l-0.004-0.002 2.732 1.315zM14.739 20.621c-0.062 0.44-0.249 0.828-0.523 1.137l0.002-0.002-3.635 4.118c-0.108 0.121-0.264 0.197-0.438 0.197-0.146 0-0.279-0.053-0.382-0.141l0.001 0.001c-0.125-0.108-0.203-0.266-0.203-0.443 0-0.149 0.056-0.285 0.147-0.388l-0.001 0.001c0.006-0.007 0.012-0.014 0.018-0.021l3.007-3.926c0.314-0.406 0.521-0.909 0.571-1.457l0.001-0.011 0.188-2.092c0.186 0.308 0.39 0.575 0.62 0.818l-0.002-0.002 0.816 0.861zM22.856 14.366h-3.061c-0 0-0 0-0 0-0.366 0-0.694-0.161-0.917-0.417l-0.001-0.001-0.793-0.91c-0.121-0.139-0.298-0.226-0.496-0.226-0.275 0-0.511 0.169-0.609 0.409l-0.002 0.004-0.753 1.881c-0.099 0.24-0.156 0.518-0.156 0.809 0 0.532 0.191 1.020 0.509 1.398l-0.003-0.003 2.289 2.744c0.129 0.154 0.208 0.355 0.208 0.574v5.177c-0 0.323-0.262 0.585-0.586 0.585-0.022 0-0.043-0.001-0.064-0.003l0.003 0c-0.294-0.029-0.524-0.31-0.524-0.638v-3.682c0-0.001 0-0.002 0-0.003 0-0.533-0.209-1.016-0.549-1.374l0.001 0.001-2.675-2.822c-0.672-0.712-1.085-1.674-1.085-2.733 0-0.635 0.148-1.235 0.412-1.767l-0.010 0.023 1.55-3.16c0.004-0.009 0.008-0.018 0.012-0.027 0.21-0.512 0.704-0.867 1.282-0.867 0.487 0 0.916 0.252 1.161 0.633l0.003 0.005 1.709 2.681c0.208 0.325 0.567 0.537 0.976 0.537 0.001 0 0.002 0 0.003 0h2.167c0.323 0 0.585 0.262 0.585 0.585s-0.262 0.585-0.585 0.585v0z"></path>
</svg>
