<!-- Generated by IcoMoon.io -->
<svg version="1.1" xmlns="http://www.w3.org/2000/svg" width="32" height="32" viewBox="0 0 32 32">
<title>cyc_weekend</title>
<path d="M16 18.36c1.38 0 2.498-1.119 2.498-2.498s-1.119-2.498-2.498-2.498c-1.38 0-2.498 1.119-2.498 2.498v0c0.002 1.379 1.119 2.497 2.498 2.498h0zM16 14.535c0.733 0 1.327 0.594 1.327 1.327s-0.594 1.327-1.327 1.327c-0.733 0-1.327-0.594-1.327-1.327 0-0 0-0 0-0v0c0.001-0.732 0.594-1.326 1.327-1.327h0zM22.212 18.36c1.38 0 2.498-1.119 2.498-2.498s-1.119-2.498-2.498-2.498c-1.38 0-2.498 1.119-2.498 2.498v0c0.002 1.379 1.119 2.497 2.498 2.498h0zM22.212 24.592c1.38 0 2.498-1.119 2.498-2.498s-1.119-2.498-2.498-2.498c-1.38 0-2.498 1.119-2.498 2.498v0c0.002 1.379 1.119 2.497 2.498 2.498h0zM9.787 24.592c1.38 0 2.498-1.119 2.498-2.498s-1.119-2.498-2.498-2.498c-1.38 0-2.498 1.119-2.498 2.498v0c0.002 1.379 1.119 2.497 2.498 2.498h0zM9.787 20.767c0.733 0 1.327 0.594 1.327 1.327s-0.594 1.327-1.327 1.327c-0.733 0-1.327-0.594-1.327-1.327v0c0.001-0.733 0.594-1.326 1.327-1.327h0zM25.541 6.894h-1.742v-1.672c-0.004-0.32-0.265-0.579-0.586-0.579s-0.582 0.258-0.586 0.578v1.672h-6.041v-1.672c0-0.324-0.262-0.586-0.586-0.586s-0.586 0.262-0.586 0.586v0 1.672h-6.041v-1.672c0-0.324-0.262-0.586-0.586-0.586s-0.586 0.262-0.586 0.586v0 1.672h-1.743c-1.095 0.001-1.982 0.889-1.983 1.983v16.503c0.001 1.095 0.888 1.982 1.983 1.983h19.082c1.095-0.001 1.982-0.888 1.983-1.983v-16.503c-0.001-1.095-0.888-1.982-1.983-1.983h-0zM26.353 25.38c-0.001 0.448-0.364 0.811-0.812 0.812h-19.082c-0.448-0.001-0.811-0.364-0.812-0.812v-13.229h20.706zM26.353 10.979h-20.706v-2.102c0.001-0.448 0.364-0.811 0.812-0.812h1.743v0.898c0 0.324 0.262 0.586 0.586 0.586s0.586-0.262 0.586-0.586v0-0.898h6.041v0.898c0 0.324 0.262 0.586 0.586 0.586s0.586-0.262 0.586-0.586v0-0.898h6.041v0.898c0.004 0.32 0.265 0.579 0.586 0.579s0.582-0.258 0.586-0.578v-0.898h1.743c0.448 0.001 0.811 0.364 0.812 0.812v0zM16 24.592c1.38 0 2.498-1.119 2.498-2.498s-1.119-2.498-2.498-2.498c-1.38 0-2.498 1.119-2.498 2.498v0c0.002 1.379 1.119 2.497 2.498 2.498h0zM16 20.767c0.733 0 1.327 0.594 1.327 1.327s-0.594 1.327-1.327 1.327c-0.733 0-1.327-0.594-1.327-1.327v0c0.001-0.732 0.594-1.326 1.327-1.327h0zM9.788 18.36c1.38 0 2.498-1.119 2.498-2.498s-1.119-2.498-2.498-2.498c-1.38 0-2.498 1.119-2.498 2.498v0c0.002 1.379 1.119 2.497 2.498 2.498h0zM9.788 14.535c0.733 0 1.327 0.594 1.327 1.327s-0.594 1.327-1.327 1.327c-0.733 0-1.327-0.594-1.327-1.327 0-0 0-0 0-0v0c0.001-0.732 0.594-1.326 1.327-1.327h0z"></path>
</svg>
