<!-- Generated by IcoMoon.io -->
<svg version="1.1" xmlns="http://www.w3.org/2000/svg" width="32" height="32" viewBox="0 0 32 32">
<title>cyc_difficolta2</title>
<path d="M29.286 15.414h-1.632v-1.632c-0.004-0.32-0.265-0.579-0.586-0.579s-0.582 0.258-0.586 0.578v1.632h-1.632c-0.324 0-0.586 0.262-0.586 0.586s0.262 0.586 0.586 0.586h1.632v1.632c0.004 0.32 0.265 0.579 0.586 0.579s0.582-0.258 0.586-0.578v-1.632h1.632c0.324 0 0.586-0.262 0.586-0.586s-0.262-0.586-0.586-0.586v0zM7.149 15.414h-4.435c-0.324 0-0.586 0.262-0.586 0.586s0.262 0.586 0.586 0.586h4.435c0.324 0 0.586-0.262 0.586-0.586s-0.262-0.586-0.586-0.586v0zM21.573 10.353c-0.073-0.035-0.158-0.055-0.248-0.055-0.141 0-0.27 0.050-0.371 0.132l0.001-0.001-12.571 10.232c-0.132 0.108-0.216 0.271-0.216 0.454 0 0.324 0.262 0.586 0.586 0.586 0 0 0 0 0 0h12.709c0 0 0 0 0 0 0.324 0 0.586-0.262 0.586-0.586 0-0.003-0-0.006-0-0.008v0l-0.139-10.232c-0.003-0.23-0.139-0.428-0.334-0.521l-0.004-0.002z"></path>
</svg>
