<!-- Generated by IcoMoon.io -->
<svg version="1.1" xmlns="http://www.w3.org/2000/svg" width="32" height="32" viewBox="0 0 32 32">
<title>cyc_in-famiglia1</title>
<path d="M24.885 8.434c0.803 0 1.454-0.651 1.454-1.454s-0.651-1.454-1.454-1.454c-0.803 0-1.454 0.651-1.454 1.454v0c0.001 0.803 0.651 1.453 1.454 1.454h0zM16.143 15.927c0.623-0 1.129-0.505 1.129-1.129s-0.505-1.129-1.129-1.129-1.129 0.505-1.129 1.129v0c0.001 0.623 0.506 1.128 1.129 1.129h0zM27.495 18.361c-0.249-0.5-0.477-1.091-0.651-1.705l-0.018-0.074c-0.007-0.018-0.013-0.040-0.017-0.062l-0-0.003c-0.233-0.827-0.368-1.778-0.369-2.759v-1.036c0-0.248 0.201-0.449 0.449-0.449s0.449 0.201 0.449 0.449v0 1.035c0.001 0.908 0.127 1.786 0.361 2.619l-0.016-0.068 0.355 0.973c0.051 0.137 0.18 0.232 0.332 0.232 0.195 0 0.353-0.158 0.353-0.353 0-0.014-0.001-0.029-0.003-0.043l0 0.002-0.619-5.347c-0.195-1.618-1.56-2.861-3.215-2.861s-3.020 1.242-3.213 2.845l-0.002 0.015-0.424 4.026c-0.037 0.341-0.161 0.648-0.349 0.905l0.004-0.005-1.571 2.159c-0.083 0.113-0.214 0.185-0.363 0.185-0.248 0-0.449-0.201-0.449-0.449 0-0 0-0 0-0v0c-0.001-1.141-0.926-2.065-2.066-2.067h-0.616c-1.141 0.001-2.066 0.926-2.067 2.067v0c-0 0.248-0.201 0.449-0.449 0.449-0.168 0-0.314-0.092-0.391-0.228l-0.001-0.002-1.162-2.085c-0.121-0.212-0.202-0.461-0.227-0.727l-0.001-0.007-0.341-3.685c0-0.003-0.001-0.007-0.001-0.010-0.147-2.068-1.861-3.69-3.954-3.69-2.189 0-3.963 1.774-3.963 3.963 0 0 0 0 0 0.001v-0 5.199c0 0.25 0.203 0.453 0.453 0.453 0.127 0 0.242-0.052 0.324-0.136l0-0c0.070-0.071 0.116-0.166 0.127-0.271l0-0.002c-0.056-2.062-0.095-3.895-0.116-5.085 0-0.008 0.001-0.016 0.001-0.024s0-0.014 0.001-0.021 0.002-0.016 0.003-0.024 0.002-0.014 0.003-0.021 0.004-0.016 0.005-0.024 0.003-0.013 0.005-0.020c0.002-0.008 0.005-0.015 0.008-0.023 0.002-0.006 0.004-0.013 0.006-0.018 0.003-0.008 0.007-0.015 0.010-0.022 0.003-0.006 0.005-0.012 0.008-0.018s0.008-0.013 0.011-0.020 0.007-0.012 0.010-0.018 0.008-0.012 0.013-0.018 0.008-0.012 0.012-0.017 0.009-0.011 0.014-0.016 0.009-0.011 0.015-0.017 0.010-0.009 0.014-0.014 0.011-0.011 0.017-0.016 0.010-0.008 0.015-0.012 0.012-0.010 0.019-0.015c0.005-0.004 0.011-0.007 0.016-0.010 0.007-0.004 0.014-0.009 0.021-0.013 0.006-0.003 0.011-0.006 0.017-0.009s0.014-0.008 0.022-0.011c0.006-0.003 0.012-0.005 0.018-0.007 0.008-0.003 0.015-0.006 0.022-0.009s0.014-0.004 0.020-0.006 0.015-0.004 0.022-0.006 0.015-0.003 0.023-0.004 0.014-0.003 0.022-0.004 0.017-0.001 0.025-0.002c0.006 0 0.013-0.001 0.020-0.001h0.011c0 0 0 0 0.001 0 0.016 0 0.031 0.001 0.046 0.002l-0.002-0h0.003c0.014 0.001 0.027 0.003 0.040 0.006 0.005 0.001 0.010 0.003 0.015 0.004 0.009 0.002 0.018 0.004 0.027 0.007 0.006 0.002 0.012 0.004 0.018 0.007s0.015 0.005 0.022 0.008 0.013 0.006 0.020 0.009 0.013 0.006 0.018 0.009 0.014 0.008 0.021 0.012c0.005 0.003 0.011 0.006 0.016 0.009 0.007 0.004 0.013 0.009 0.019 0.014 0.005 0.004 0.010 0.007 0.015 0.011s0.012 0.010 0.018 0.016 0.010 0.008 0.014 0.013 0.010 0.011 0.016 0.017 0.009 0.009 0.013 0.014 0.009 0.012 0.014 0.018 0.008 0.011 0.012 0.016 0.008 0.013 0.012 0.019 0.008 0.011 0.011 0.017 0.007 0.013 0.010 0.020 0.006 0.012 0.009 0.018 0.005 0.014 0.008 0.021 0.005 0.013 0.007 0.019 0.004 0.015 0.006 0.023 0.004 0.013 0.005 0.019 0.003 0.016 0.004 0.024 0.003 0.013 0.003 0.020c0.001 0.008 0.001 0.017 0.002 0.025 0 0.007 0.001 0.013 0.001 0.019v0.004l0.119 5.026c0.001 0.024-0.001 0.047-0.002 0.071 0.078 2.916 0.189 6.286 0.324 8.938 0.020 0.372 0.326 0.667 0.702 0.667 0.388 0 0.703-0.315 0.703-0.703 0-0 0-0 0-0v0-7.577c0-0.248 0.201-0.449 0.449-0.449s0.449 0.201 0.449 0.449v0 7.577c0 0.388 0.315 0.703 0.703 0.703 0.376 0 0.682-0.295 0.702-0.665l0-0.002c0.163-3.195 0.29-7.434 0.368-10.664 0-0.015-0.001-0.030-0.001-0.046l0.072-3.282c0-0.014 0.001-0.028 0.001-0.042 0.004-0.245 0.204-0.441 0.449-0.441h0.008c0.245 0.005 0.441 0.204 0.441 0.449 0 0.003-0 0.006-0 0.009v-0c-0.015 0.848-0.040 2.023-0.072 3.374 0 0.362 0.101 0.7 0.276 0.988l-0.005-0.009 1.714 2.861c0.143 0.236 0.399 0.392 0.691 0.392 0.204 0 0.391-0.076 0.533-0.202l-0.001 0.001 0.204-0.18c0.079-0.070 0.183-0.112 0.297-0.112 0.248 0 0.449 0.201 0.449 0.449 0 0.002 0 0.004-0 0.006v-0c-0.015 1.425 0.053 4.747 0.095 6.6 0.004 0.29 0.24 0.524 0.53 0.524 0.293 0 0.53-0.237 0.53-0.53 0-0.002 0-0.004-0-0.007v0-4.517c0-0.248 0.201-0.449 0.449-0.449s0.449 0.201 0.449 0.449v0 4.517c0 0.293 0.238 0.53 0.53 0.53h0.045c0.289-0.002 0.523-0.232 0.53-0.519v-0.001c0.051-2.401 0.069-4.806 0.050-6.598-0-0.001-0-0.003-0-0.005 0-0.248 0.201-0.449 0.449-0.449 0.136 0 0.258 0.060 0.34 0.156l0 0.001c0.149 0.172 0.367 0.28 0.611 0.28 0.261 0 0.492-0.124 0.64-0.316l0.001-0.002 1.785-2.348c0.506-1.136 0.802-2.462 0.805-3.857v-1.037c0-0.248 0.201-0.449 0.449-0.449s0.449 0.201 0.449 0.449v1.035c-0.003 1.541-0.332 3.004-0.924 4.324l0.027-0.067c-0.003 0.008-0.007 0.016-0.011 0.024-0.048 0.109-0.097 0.217-0.149 0.324l-1.156 2.387c-0.004 0.008-0.006 0.017-0.006 0.027 0 0.034 0.028 0.062 0.062 0.062 0 0 0 0 0 0v0h1.767c0.245 0 0.445 0.197 0.449 0.442v0l0.090 5.652c0.002 0.269 0.221 0.487 0.491 0.487 0.271 0 0.491-0.22 0.491-0.491 0-0.001 0-0.003-0-0.004v0-5.655c0-0.248 0.201-0.449 0.449-0.449s0.449 0.201 0.449 0.449v0 5.655c0 0.001 0 0.003 0 0.004 0 0.271 0.22 0.491 0.491 0.491 0.27 0 0.488-0.218 0.491-0.487v-0l0.090-5.652c0.004-0.245 0.203-0.442 0.449-0.442 0 0 0 0 0 0h1.767c0.034-0 0.062-0.028 0.062-0.062 0-0.010-0.002-0.019-0.006-0.027l0 0zM7.259 7.98c0 0 0 0 0 0 0.937 0 1.697-0.76 1.697-1.697s-0.76-1.697-1.697-1.697c-0.937 0-1.697 0.76-1.697 1.697 0 0 0 0 0 0v0c0.001 0.937 0.76 1.696 1.697 1.697h0z"></path>
</svg>
