<!-- Generated by IcoMoon.io -->
<svg version="1.1" xmlns="http://www.w3.org/2000/svg" width="32" height="32" viewBox="0 0 32 32">
<title>cyc_self-guided</title>
<path d="M16.001 4.843h-0.001c-6.161 0-11.156 4.995-11.156 11.157 0 0 0 0 0 0v0c0.007 6.159 4.998 11.15 11.156 11.157h0.001c0 0 0 0 0 0 6.162 0 11.157-4.995 11.157-11.157s-4.995-11.157-11.157-11.157h-0zM16.586 25.968v-1.588c0-0.324-0.262-0.586-0.586-0.586s-0.586 0.262-0.586 0.586v0 1.588c-5.051-0.313-9.069-4.331-9.381-9.353l-0.001-0.028h1.588c0.324 0 0.586-0.262 0.586-0.586s-0.262-0.586-0.586-0.586h-1.589c0.306-5.054 4.328-9.076 9.354-9.381l0.028-0.001v1.589c0 0.324 0.262 0.586 0.586 0.586s0.586-0.262 0.586-0.586v0-1.588c5.051 0.313 9.069 4.331 9.38 9.353l0.001 0.028h-1.588c-0.324 0-0.586 0.262-0.586 0.586s0.262 0.586 0.586 0.586h1.588c-0.313 5.051-4.331 9.069-9.353 9.38l-0.028 0.001zM20.934 10.349l-8.021 2.149c-0.202 0.056-0.359 0.212-0.413 0.41l-0.001 0.004-2.149 8.023c-0.012 0.045-0.019 0.096-0.019 0.149 0 0.093 0.022 0.181 0.060 0.259l-0.002-0.003c0.015 0.031 0.030 0.057 0.048 0.081l-0.001-0.002c0.107 0.153 0.282 0.251 0.481 0.251 0.057 0 0.113-0.008 0.166-0.024l-0.004 0.001 8.002-2.144c0.002 0 0.004-0.001 0.005-0.002s0.003 0 0.005-0.001c0.009-0.002 0.016-0.006 0.025-0.009 0.015-0.005 0.029-0.009 0.044-0.015 0.010-0.004 0.020-0.009 0.030-0.014 0.013-0.006 0.026-0.012 0.039-0.019 0.011-0.006 0.021-0.014 0.032-0.020s0.021-0.014 0.032-0.021c0.013-0.010 0.025-0.021 0.037-0.031 0.006-0.006 0.013-0.011 0.019-0.017v0 0l0.004-0.004 0.002-0.002 0.004-0.004c0.003-0.003 0.004-0.006 0.007-0.008 0.017-0.019 0.034-0.039 0.049-0.060l0.001-0.002c0.006-0.008 0.011-0.016 0.016-0.024 0.010-0.016 0.021-0.034 0.030-0.054l0.002-0.003c0.004-0.008 0.009-0.016 0.012-0.025 0.010-0.022 0.020-0.050 0.028-0.078l0.001-0.004 0.001-0.004v-0.001l2.149-8.017c0.013-0.045 0.020-0.098 0.020-0.152 0-0.324-0.262-0.586-0.586-0.586-0.054 0-0.106 0.007-0.156 0.021l0.004-0.001zM11.743 20.257l1.624-6.061 4.437 4.437z"></path>
</svg>
