<!-- Generated by IcoMoon.io -->
<svg version="1.1" xmlns="http://www.w3.org/2000/svg" width="32" height="32" viewBox="0 0 32 32">
<title>cyc_bici</title>
<path d="M28.662 15.163c-1.048-1.048-2.496-1.697-4.095-1.697-0.697 0-1.365 0.123-1.983 0.349l0.040-0.013-1.381-2.91v-1.868c-0-1.147-0.93-2.076-2.076-2.076h-2.055c-0.324 0-0.586 0.262-0.586 0.586s0.262 0.586 0.586 0.586h2.055c0.5 0 0.905 0.405 0.905 0.905v0 1.414h-8.646l-0.541-1.017c-0.002-0.004-0.004-0.007-0.006-0.010 0.703-0.217 1.423-0.441 1.478-0.458 0.241-0.076 0.412-0.298 0.412-0.559 0-0.324-0.262-0.586-0.586-0.586-0 0-0 0-0 0h-4.089c-0.324 0-0.586 0.262-0.586 0.586 0 0.036 0.003 0.071 0.009 0.104l-0.001-0.004c0.171 0.978 1.061 1.344 1.773 1.361h0.019c0.086-0 0.168-0.013 0.246-0.037l-0.006 0.002c0.060-0.018 0.189-0.057 0.357-0.109 0.007 0.074 0.028 0.141 0.060 0.202l-0.001-0.003 0.564 1.061-0.26 0.578h-6.247c-0.324 0-0.586 0.262-0.586 0.586s0.262 0.586 0.586 0.586h5.719l-0.471 1.044c-0.548-0.189-1.179-0.299-1.836-0.299-3.2 0-5.794 2.594-5.794 5.794s2.594 5.794 5.794 5.794c2.993 0 5.456-2.27 5.762-5.182l0.002-0.025h0.702c0.248 0.691 0.89 1.179 1.649 1.196l0.002 0 0.346 1.527c-0.2 0.096-0.336 0.297-0.336 0.53 0 0.323 0.262 0.585 0.585 0.585 0.001 0 0.001 0 0.002 0h1.259c0.32-0.004 0.579-0.265 0.579-0.586s-0.258-0.582-0.578-0.586h-0.322l-0.414-1.829c0.441-0.331 0.724-0.853 0.724-1.441 0-0.436-0.156-0.837-0.415-1.148l0.002 0.003 3.608-5.849 0.976 2.057c-1.684 1.033-2.791 2.864-2.791 4.954 0 3.199 2.593 5.792 5.792 5.792s5.792-2.593 5.792-5.792c0-1.599-0.648-3.048-1.697-4.096v0zM7.434 23.88c-2.55-0.003-4.616-2.071-4.616-4.621 0-2.552 2.069-4.621 4.621-4.621 0.48 0 0.943 0.073 1.378 0.209l-0.033-0.009-1.482 3.286c-0.573 0.067-1.013 0.55-1.013 1.136 0 0.631 0.512 1.143 1.143 1.143 0.415 0 0.778-0.221 0.978-0.552l0.003-0.005h3.602c-0.303 2.286-2.238 4.032-4.582 4.035h-0zM8.415 18.673c-0.014-0.023-0.028-0.046-0.044-0.068l1.481-3.285c0.321 0.2 0.599 0.421 0.849 0.671v0c0.703 0.7 1.18 1.625 1.313 2.659l0.002 0.023zM13.889 18.673h-0.691c-0.14-1.382-0.751-2.6-1.667-3.511l-0-0c-0.348-0.348-0.739-0.652-1.166-0.903l-0.027-0.015 0.856-1.899 3.064 5.697c-0.159 0.176-0.285 0.387-0.365 0.618l-0.004 0.013zM15.982 17.487c-0.115-0.027-0.248-0.043-0.384-0.043-0.112 0-0.221 0.011-0.327 0.031l0.011-0.002-3.154-5.864h7.48zM24.566 23.88c-0.001 0-0.001 0-0.002 0-2.551 0-4.619-2.068-4.619-4.619 0-1.626 0.84-3.056 2.11-3.879l0.018-0.011 1.544 3.253c-0.121 0.178-0.193 0.398-0.193 0.635 0 0.631 0.512 1.143 1.143 1.143s1.143-0.512 1.143-1.143c0-0.593-0.452-1.081-1.030-1.137l-0.005-0-1.544-3.253c0.429-0.145 0.923-0.229 1.436-0.229 2.552 0 4.621 2.069 4.621 4.621s-2.069 4.621-4.621 4.621c-0 0-0 0-0 0v0z"></path>
</svg>
