<!-- Generated by IcoMoon.io -->
<svg version="1.1" xmlns="http://www.w3.org/2000/svg" width="32" height="32" viewBox="0 0 32 32">
<title>cyc_trekking1</title>
<path d="M13.675 11.135l1.193-2.48c0.090-0.184 0.142-0.4 0.142-0.629 0-0.807-0.654-1.461-1.461-1.461-0.575 0-1.072 0.332-1.31 0.814l-0.004 0.009-1.193 2.48 0.892 0.43zM11.409 15.349c0.185-0.066 0.333-0.199 0.415-0.369l0.002-0.004 1.509-3.137-2.732-1.315c-0.093-0.046-0.202-0.072-0.317-0.072-0.289 0-0.538 0.167-0.657 0.41l-0.002 0.004-1.192 2.478c-0.046 0.093-0.072 0.202-0.072 0.317 0 0.289 0.167 0.538 0.41 0.658l0.004 0.002 2.073 0.998c0.093 0.046 0.202 0.073 0.317 0.073 0.087 0 0.17-0.015 0.247-0.043l-0.005 0.002zM19.124 9.139c1.147 0 2.077-0.93 2.077-2.077s-0.93-2.077-2.077-2.077c-1.147 0-2.077 0.93-2.077 2.077v0c0 1.147 0.93 2.077 2.077 2.077v0zM23.030 12.298v-2.021c0-0.324-0.262-0.586-0.586-0.586s-0.586 0.262-0.586 0.586v0 1.981h0.802c0.131 0 0.258 0.015 0.381 0.042l-0.012-0.002zM22.661 13.039h-2.167c-0.272-0-0.51-0.141-0.647-0.353l-0.002-0.003-1.709-2.681c-0.114-0.176-0.251-0.325-0.41-0.448l-0.004-0.003c-0.102-0.058-0.187-0.113-0.269-0.172l0.008 0.006c-0.238-0.127-0.521-0.202-0.821-0.202-0.74 0-1.375 0.455-1.639 1.1l-0.004 0.012-1.55 3.16c-0.281 0.56-0.445 1.22-0.445 1.919 0 1.162 0.455 2.219 1.197 3l-0.002-0.002 2.675 2.822c0.273 0.288 0.441 0.678 0.441 1.107v0 3.682c0 0.51 0.367 0.976 0.875 1.026 0.034 0.003 0.068 0.005 0.101 0.005 0 0 0 0 0 0 0.539 0 0.976-0.437 0.976-0.976v0-5.177c-0-0.315-0.113-0.603-0.3-0.826l0.002 0.002-2.289-2.744c-0.258-0.308-0.415-0.708-0.415-1.145 0-0.239 0.047-0.467 0.132-0.676l-0.004 0.012 0.753-1.881c0.040-0.099 0.136-0.168 0.248-0.168 0.080 0 0.152 0.035 0.201 0.091l0 0 0.793 0.911c0.296 0.339 0.73 0.552 1.213 0.552h3.061c0.535-0.005 0.966-0.44 0.966-0.976s-0.432-0.971-0.966-0.976h-0zM21.859 15.772v10.468c0 0.324 0.262 0.586 0.586 0.586s0.586-0.262 0.586-0.586v0-10.508c-0.111 0.025-0.238 0.040-0.369 0.040h-0zM12.896 17.919l-0.176 1.964c-0.045 0.482-0.223 0.916-0.498 1.272l0.004-0.006-3.007 3.926c-0.152 0.171-0.244 0.398-0.244 0.646 0 0.539 0.437 0.975 0.975 0.975 0.29 0 0.551-0.127 0.73-0.328l0.001-0.001 3.635-4.118c0.321-0.362 0.541-0.82 0.613-1.326l0.002-0.014 0.076-0.549-1.375-1.451c-0.275-0.29-0.519-0.615-0.722-0.966l-0.013-0.025z"></path>
</svg>
