<!-- Generated by IcoMoon.io -->
<svg version="1.1" xmlns="http://www.w3.org/2000/svg" width="32" height="32" viewBox="0 0 32 32">
<title>cyc_localita</title>
<path d="M16 8.284c-2.421 0-4.383 1.962-4.383 4.383s1.962 4.383 4.383 4.383 4.383-1.962 4.383-4.383c0-1.21-0.491-2.306-1.284-3.099v0c-0.794-0.793-1.889-1.283-3.099-1.284h-0zM16 15.879c-1.774 0-3.211-1.438-3.211-3.211s1.438-3.211 3.211-3.211c1.774 0 3.211 1.438 3.211 3.211v0c0 0.006 0 0.013 0 0.021 0 1.762-1.429 3.191-3.191 3.191-0.007 0-0.014-0-0.022-0h0.001zM23.146 7.999c-0.813-1.199-1.89-2.161-3.151-2.817l-0.047-0.022c-1.148-0.597-2.508-0.947-3.948-0.947s-2.8 0.35-3.997 0.969l0.049-0.023c-2.806 1.471-4.688 4.364-4.688 7.696 0 0.913 0.141 1.793 0.403 2.619l-0.017-0.061c1.281 4.269 3.915 8.376 7.83 12.206 0.106 0.103 0.25 0.167 0.41 0.167h0.021c0 0 0 0 0 0 0.16 0 0.304-0.064 0.41-0.167l-0 0c3.915-3.83 6.549-7.937 7.828-12.201 0.25-0.77 0.395-1.655 0.395-2.574 0-1.81-0.56-3.489-1.515-4.875l0.019 0.029zM23.128 15.077c-1.179 3.931-3.577 7.734-7.128 11.31-3.551-3.575-5.948-7.378-7.13-11.315-0.214-0.664-0.337-1.427-0.337-2.219 0-4.124 3.343-7.467 7.467-7.467s7.467 3.343 7.467 7.467c0 0.794-0.124 1.56-0.354 2.278l0.015-0.053z"></path>
</svg>
