<!-- Generated by IcoMoon.io -->
<svg version="1.1" xmlns="http://www.w3.org/2000/svg" width="32" height="32" viewBox="0 0 32 32">
<title>cyc_percorso-lineare</title>
<path d="M25.343 7.835c0-0.931-0.755-1.686-1.686-1.686s-1.686 0.755-1.686 1.686c0 0.931 0.755 1.686 1.686 1.686v0c0 0 0 0 0 0 0.931 0 1.686-0.755 1.686-1.686 0-0 0-0 0-0v0zM8.699 16.32c-1.184 0-2.143 0.96-2.143 2.143s0.96 2.143 2.143 2.143c1.184 0 2.143-0.96 2.143-2.143v0c0-1.184-0.96-2.143-2.143-2.143v0zM25.123 20.627h-4.289c-1.589 0-2.877-1.288-2.877-2.877s1.288-2.877 2.877-2.877h1.356c0.238 0.587 0.803 0.993 1.464 0.993 0.87 0 1.575-0.705 1.575-1.575 0-0.24-0.054-0.468-0.15-0.672l0.004 0.010c1.227-1.426 2.083-2.927 2.547-4.475 0.119-0.37 0.188-0.795 0.188-1.237 0-2.298-1.863-4.161-4.161-4.161s-4.161 1.863-4.161 4.161c0 0.439 0.068 0.863 0.194 1.261l-0.008-0.029c0.465 1.55 1.319 3.050 2.543 4.474-0.012 0.027-0.025 0.053-0.036 0.080h-1.356c-2.236 0-4.048 1.812-4.048 4.048s1.812 4.048 4.048 4.048v0h4.289c0.004-0 0.009-0 0.014-0 1.182 0 2.141 0.959 2.141 2.141s-0.959 2.141-2.141 2.141c-0.005 0-0.010-0-0.015-0h-14.955c-0.009-0.023-0.019-0.046-0.029-0.068 1.681-1.882 2.844-3.869 3.46-5.921 0.147-0.456 0.232-0.981 0.232-1.525 0-2.834-2.297-5.131-5.131-5.131s-5.131 2.297-5.131 5.131c0 0.542 0.084 1.065 0.24 1.556l-0.010-0.036c0.618 2.060 1.784 4.051 3.47 5.935-0.087 0.19-0.138 0.411-0.138 0.645 0 0.87 0.705 1.575 1.575 1.575 0.659 0 1.224-0.405 1.459-0.979l0.004-0.011h14.956c0.005 0 0.011 0 0.017 0 1.829 0 3.313-1.483 3.313-3.313s-1.483-3.313-3.313-3.313c-0.006 0-0.012 0-0.018 0h0.001zM20.803 8.806c-0.086-0.266-0.135-0.572-0.135-0.889 0-1.651 1.339-2.99 2.99-2.99s2.99 1.339 2.99 2.99c0 0.319-0.050 0.627-0.143 0.916l0.006-0.021c-0.482 1.608-1.441 3.169-2.853 4.648-1.412-1.479-2.371-3.040-2.855-4.653zM8.699 25.843c-1.875-1.934-3.145-3.982-3.78-6.098-0.113-0.352-0.179-0.757-0.179-1.177 0-2.187 1.773-3.959 3.959-3.959s3.959 1.773 3.959 3.959c0 0.422-0.066 0.829-0.188 1.21l0.008-0.028c-0.633 2.111-1.904 4.159-3.779 6.093z"></path>
</svg>
