<!-- Generated by IcoMoon.io -->
<svg version="1.1" xmlns="http://www.w3.org/2000/svg" width="32" height="32" viewBox="0 0 32 32">
<title>cyc_di-gruppo</title>
<path d="M22.524 0.982c0.76 0.76 0.76 1.993 0 2.754s-1.993 0.76-2.754 0c-0.76-0.76-0.76-1.993 0-2.754s1.993-0.76 2.754 0z"></path>
<path d="M15.275 8.347v3.183h1.748c0.057 0 0.113 0.003 0.168 0.008l-1.548-0.9 3.128-3.496 1.626 2.866c0.179 0.311 0.509 0.517 0.887 0.517h1.699l0.448 1.26h-5.5c0.515 0.313 0.854 0.871 0.854 1.509 0 0.741-0.458 1.376-1.107 1.635l-0.012 0.004 0.768 2.157c0.21-0.027 0.452-0.043 0.698-0.043h0c0.14 0 0.278 0.007 0.415 0.017v-3.569c-0.001-0.264-0.102-0.505-0.267-0.686l0.001 0.001h3.167l-2.091 1.827c-0.104 0.094-0.17 0.23-0.17 0.381 0 0.283 0.23 0.513 0.513 0.513 0.127 0 0.243-0.046 0.332-0.122l-0.001 0.001 2.814-2.459 0.548 1.54c-1.296 0.631-2.265 1.765-2.662 3.141l-0.009 0.035c0.349 0.179 0.649 0.371 0.928 0.588l-0.013-0.010c0.248-1.222 1.026-2.224 2.079-2.772l0.022-0.010 1.323 3.718c0.071 0.204 0.261 0.348 0.486 0.348 0.283 0 0.513-0.23 0.513-0.513 0-0.064-0.012-0.126-0.034-0.183l0.001 0.003-1.323-3.719c0.253-0.057 0.543-0.090 0.84-0.090h0c2.195 0 3.981 1.786 3.981 3.981s-1.786 3.981-3.981 3.981c-0.001 0-0.002 0-0.003 0-0.605 0-1.178-0.136-1.691-0.378l0.024 0.010c0.002 0.058 0.004 0.116 0.004 0.174-0 0.321-0.026 0.635-0.077 0.942l0.005-0.033c0.515 0.197 1.111 0.311 1.734 0.311 0.001 0 0.003 0 0.004 0h-0c2.76 0 5.006-2.246 5.006-5.006s-2.246-5.006-5.006-5.006c-0.421 0-0.83 0.052-1.221 0.151l0.034-0.007-1.289-3.621h0.366c0.002 0 0.004 0 0.006 0 0.563 0 1.020-0.457 1.020-1.020s-0.456-1.020-1.020-1.020c-0.002 0-0.004 0-0.006 0h-2.559l-2.033-3.584c-0.001-0.003-0.003-0.005-0.005-0.007-0.009-0.016-0.019-0.031-0.029-0.046-0.008-0.012-0.016-0.024-0.024-0.036-0.010-0.014-0.020-0.027-0.031-0.040s-0.021-0.026-0.032-0.038c-0.010-0.011-0.020-0.022-0.031-0.033q-0.019-0.020-0.040-0.040c-0.006-0.005-0.011-0.011-0.017-0.016-0.005-0.004-0.010-0.008-0.014-0.012s-0.011-0.010-0.017-0.015c-0.009-0.007-0.018-0.013-0.026-0.020-0.013-0.010-0.026-0.020-0.040-0.030-0.367-0.285-0.835-0.456-1.342-0.456-0.652 0-1.238 0.283-1.641 0.734l-0.002 0.002-0.308 0.344c0.111 0.283 0.175 0.611 0.175 0.954 0 0.907-0.45 1.71-1.139 2.196l-0.008 0.006z"></path>
<path d="M15.681 6.145c0-1.075-0.872-1.947-1.947-1.947s-1.947 0.872-1.947 1.947c0 1.075 0.872 1.947 1.947 1.947 0 0 0 0 0 0v0c1.075 0 1.947-0.872 1.947-1.947 0 0 0-0 0-0v0z"></path>
<path d="M7.862 12.133v3.183h1.748c0.057 0 0.113 0.003 0.168 0.008l-1.548-0.9 3.128-3.496 1.626 2.866c0.179 0.311 0.509 0.517 0.887 0.517h1.699l0.448 1.26h-5.5c0.515 0.313 0.854 0.872 0.854 1.509 0 0.741-0.458 1.376-1.107 1.635l-0.012 0.004 0.768 2.157c0.21-0.027 0.452-0.043 0.698-0.043h0c0.14 0 0.278 0.007 0.415 0.017v-3.569c-0.001-0.264-0.102-0.505-0.267-0.686l0.001 0.001h3.167l-2.091 1.827c-0.108 0.094-0.175 0.232-0.175 0.386 0 0.283 0.229 0.513 0.513 0.513 0.129 0 0.248-0.048 0.338-0.127l-0.001 0 2.814-2.459 0.548 1.54c-1.296 0.631-2.265 1.765-2.662 3.141l-0.009 0.035c0.349 0.179 0.649 0.371 0.929 0.588l-0.013-0.010c0.248-1.222 1.026-2.224 2.079-2.772l0.022-0.011 1.323 3.718c0.070 0.205 0.261 0.35 0.486 0.35 0.283 0 0.513-0.23 0.513-0.513 0-0.065-0.012-0.128-0.034-0.185l0.001 0.003-1.323-3.719c0.253-0.057 0.543-0.090 0.84-0.090h0c2.195 0 3.981 1.786 3.981 3.981s-1.786 3.981-3.981 3.981c-0.001 0-0.002 0-0.003 0-0.605 0-1.178-0.136-1.691-0.378l0.024 0.010c0.002 0.058 0.004 0.116 0.004 0.174-0 0.321-0.026 0.635-0.077 0.942l0.005-0.033c0.515 0.197 1.111 0.311 1.734 0.311 0.001 0 0.003 0 0.004 0h-0c2.76 0 5.006-2.246 5.006-5.006s-2.246-5.006-5.006-5.006c-0.421 0-0.83 0.052-1.221 0.151l0.034-0.007-1.289-3.622h0.366c0.561-0.003 1.014-0.458 1.014-1.020s-0.453-1.016-1.014-1.020h-2.56l-2.033-3.584c-0.001-0.002-0.003-0.005-0.005-0.007-0.009-0.016-0.019-0.031-0.029-0.046-0.008-0.012-0.016-0.024-0.024-0.036-0.010-0.014-0.020-0.027-0.031-0.040s-0.021-0.026-0.032-0.038c-0.010-0.011-0.020-0.022-0.031-0.033q-0.019-0.020-0.040-0.040c-0.006-0.005-0.011-0.011-0.017-0.016-0.005-0.004-0.010-0.008-0.014-0.012s-0.011-0.010-0.017-0.015c-0.009-0.007-0.018-0.013-0.026-0.020-0.013-0.010-0.026-0.020-0.040-0.030-0.367-0.285-0.835-0.456-1.342-0.456-0.652 0-1.238 0.283-1.641 0.734l-0.002 0.002-0.308 0.344c0.111 0.283 0.175 0.611 0.175 0.954 0 0.907-0.45 1.71-1.139 2.196l-0.008 0.006z"></path>
<path d="M8.267 9.932c0 0 0-0 0-0 0-1.075-0.872-1.947-1.947-1.947s-1.947 0.872-1.947 1.947c0 1.075 0.872 1.947 1.947 1.947v0c0 0 0 0 0 0 1.075 0 1.947-0.872 1.947-1.947v0z"></path>
<path d="M16.725 26.582c0-2.76-2.246-5.006-5.006-5.006-0.421 0-0.83 0.052-1.221 0.151l0.034-0.007-1.289-3.622h0.366c0.002 0 0.004 0 0.005 0 0.563 0 1.020-0.456 1.020-1.020s-0.457-1.020-1.020-1.020c-0.002 0-0.004 0-0.006 0h-2.559l-2.033-3.584c-0.001-0.002-0.003-0.005-0.005-0.007-0.009-0.015-0.019-0.031-0.029-0.046-0.008-0.012-0.016-0.025-0.024-0.037-0.010-0.013-0.020-0.026-0.030-0.039s-0.021-0.026-0.032-0.039c-0.010-0.011-0.020-0.022-0.030-0.033q-0.020-0.021-0.041-0.040c-0.006-0.005-0.011-0.011-0.016-0.016-0.005-0.004-0.010-0.008-0.014-0.012-0.006-0.005-0.011-0.010-0.017-0.015-0.009-0.007-0.018-0.013-0.027-0.020-0.013-0.010-0.026-0.020-0.039-0.029-0.367-0.285-0.835-0.457-1.342-0.457-0.652 0-1.238 0.283-1.641 0.734l-0.002 0.002-1.28 1.429v6.506l2.232 1.298v3.045l-0.785 0.686-1.447-2.806v2.236l0.837 1.622c0.087 0.166 0.258 0.278 0.456 0.278 0.129 0 0.248-0.048 0.338-0.127l-0.001 0 0.603-0.527v1.099c0.003 0.561 0.458 1.014 1.020 1.014s1.016-0.453 1.020-1.014v-2.882l4.298-3.756 0.548 1.54c-1.7 0.825-2.852 2.537-2.854 4.519v0c0 2.76 2.246 5.006 5.006 5.006s5.006-2.246 5.006-5.006zM4.72 22.917v-1.85c-0.001-0.264-0.102-0.505-0.267-0.686l0.001 0.001h3.167zM3.1 19.358h-0.312l-1.971-1.146 3.128-3.496 1.625 2.866c0.179 0.311 0.509 0.516 0.887 0.516 0 0 0 0 0 0h1.699l0.448 1.26zM11.718 30.563c-2.195 0-3.981-1.786-3.981-3.981 0.002-1.539 0.875-2.873 2.153-3.536l0.022-0.010 1.323 3.718c0.075 0.197 0.261 0.334 0.48 0.334 0.283 0 0.513-0.23 0.513-0.513 0-0.059-0.010-0.116-0.028-0.169l0.001 0.004-1.323-3.719c0.253-0.057 0.543-0.090 0.84-0.090h0c2.195 0 3.981 1.786 3.981 3.981s-1.786 3.981-3.981 3.981z"></path>
</svg>
