<!-- Generated by IcoMoon.io -->
<svg version="1.1" xmlns="http://www.w3.org/2000/svg" width="32" height="32" viewBox="0 0 32 32">
<title>cyc_e-bike</title>
<path d="M14.606 9.707h1.742l-2.050 3.691c-0.050 0.084-0.079 0.186-0.079 0.294 0 0.324 0.262 0.586 0.586 0.586 0.223 0 0.417-0.125 0.516-0.308l0.002-0.003 2.533-4.561c0.046-0.082 0.074-0.18 0.074-0.284 0-0.323-0.262-0.586-0.586-0.586h-1.694l1.876-3.077c0.056-0.088 0.089-0.196 0.089-0.311 0-0.324-0.262-0.586-0.586-0.586-0.213 0-0.4 0.114-0.503 0.285l-0.001 0.003-2.418 3.968c-0.054 0.087-0.086 0.192-0.086 0.305 0 0.323 0.262 0.586 0.586 0.586v0zM24.385 15.933c-0.001 0-0.002 0-0.003 0-0.604 0-1.185 0.096-1.73 0.274l0.039-0.011-2.154-4.919h2.589c0.342 0 0.62 0.278 0.62 0.62v0c0 0.324 0.262 0.586 0.586 0.586s0.586-0.262 0.586-0.586v0c-0.001-0.989-0.803-1.79-1.791-1.791h-3.485c0 0 0 0 0 0-0.324 0-0.586 0.262-0.586 0.586 0 0.085 0.018 0.166 0.051 0.239l-0.001-0.004 1.379 3.149-6.518 3.43-2.707-5.123c0.528-0.164 0.994-0.308 1.036-0.321 0.241-0.076 0.412-0.298 0.412-0.559 0-0.324-0.262-0.586-0.586-0.586-0 0-0 0-0 0h-3.791c-0 0-0 0-0 0-0.323 0-0.586 0.262-0.586 0.586 0 0.036 0.003 0.070 0.009 0.104l-0.001-0.004c0.163 0.932 1.009 1.281 1.684 1.297h0.019c0 0 0 0 0.001 0 0.084 0 0.164-0.012 0.24-0.036l-0.006 0.002c0.067-0.020 0.224-0.068 0.429-0.131l2.809 5.317-0.62 0.326c-1.011-1.547-2.735-2.555-4.695-2.555-2.995 0-5.44 2.355-5.584 5.314l-0.001 0.013c-0.004 0.079-0.006 0.171-0.006 0.263 0 3.087 2.503 5.59 5.59 5.59v0c1.481-0.002 2.883-0.34 4.134-0.943l-0.057 0.025 0.109 0.194c0.395 0.695 1.13 1.156 1.973 1.156 0.405 0 0.786-0.107 1.115-0.293l-0.011 0.006 0.812-0.454c0.18-0.102 0.3-0.293 0.3-0.511 0-0.105-0.028-0.204-0.076-0.289l0.002 0.003-0.307-0.549 1.9-1.064c0.18-0.102 0.3-0.293 0.3-0.511 0-0.324-0.262-0.586-0.586-0.586-0.105 0-0.204 0.028-0.289 0.076l0.003-0.002-1.9 1.063-0.686-1.226 1.9-1.063c0.18-0.102 0.3-0.293 0.3-0.511 0-0.324-0.262-0.586-0.586-0.586-0.105 0-0.204 0.028-0.289 0.076l0.003-0.002-1.9 1.064-0.307-0.549c-0.102-0.18-0.293-0.3-0.511-0.3-0.105 0-0.204 0.028-0.289 0.076l0.003-0.002-0.811 0.454c-0.695 0.394-1.157 1.13-1.157 1.973 0 0.406 0.107 0.786 0.294 1.115l-0.006-0.011 0.127 0.226c-1.027 0.486-2.232 0.77-3.503 0.772h-0.001c-2.431-0.013-4.397-1.986-4.397-4.419 0-2.379 1.879-4.318 4.234-4.415l0.009-0c0.042-0.001 0.091-0.002 0.141-0.002 1.515 0 2.854 0.759 3.656 1.917l0.010 0.015-3.741 1.968c-0.188 0.1-0.313 0.295-0.313 0.518 0 0.324 0.262 0.586 0.586 0.586 0.1 0 0.194-0.025 0.276-0.069l-0.003 0.002 12.884-6.78 0.664 1.518c-1.695 0.981-2.817 2.785-2.817 4.851 0 3.085 2.501 5.586 5.586 5.586s5.586-2.501 5.586-5.586c0-3.085-2.501-5.586-5.586-5.586-0.002 0-0.003 0-0.005 0h0zM11.916 23.432c0.081-0.283 0.266-0.513 0.511-0.652l0.005-0.003 0.3-0.168 1.873 3.345-0.3 0.168c-0.153 0.087-0.336 0.138-0.531 0.138-0.406 0-0.76-0.222-0.948-0.551l-0.003-0.005-0.809-1.445c-0.088-0.153-0.139-0.336-0.139-0.531 0-0.106 0.015-0.208 0.043-0.304l-0.002 0.008zM24.385 25.941c-0 0-0.001 0-0.001 0-2.44 0-4.418-1.978-4.418-4.418 0-1.593 0.843-2.988 2.107-3.766l0.019-0.011 1.756 4.011c0.093 0.208 0.298 0.351 0.537 0.351 0.324 0 0.586-0.262 0.586-0.586 0-0.085-0.018-0.166-0.051-0.239l0.001 0.004-1.756-4.011c0.366-0.109 0.785-0.172 1.22-0.172 2.44 0 4.418 1.978 4.418 4.418s-1.978 4.418-4.418 4.418c-0 0-0 0-0 0h0z"></path>
</svg>
