<!-- Generated by IcoMoon.io -->
<svg version="1.1" xmlns="http://www.w3.org/2000/svg" width="32" height="32" viewBox="0 0 32 32">
<title>cyc_bici-e-barca</title>
<path d="M27.763 15.272c-0.002-1.814-1.472-3.284-3.286-3.286h-0c-0.001 0-0.001 0-0.002 0-0.379 0-0.744 0.064-1.083 0.182l0.023-0.007-0.796-1.379v-1.615c-0.001-0.742-0.602-1.343-1.343-1.344h-1.051c-0.279 0.011-0.5 0.24-0.5 0.521s0.222 0.509 0.499 0.521l0.001 0h1.050c0.166 0 0.301 0.135 0.302 0.302v1.234h-4.194c-0.098-0.18-0.195-0.358-0.279-0.514 0.099-0.010 0.199-0.021 0.297-0.037l0.066-0.010c0.242-0.048 0.421-0.259 0.421-0.511 0-0.288-0.233-0.521-0.521-0.521-0.021 0-0.041 0.001-0.061 0.004l0.002-0-0.066 0.010c-0.2 0.032-0.43 0.051-0.664 0.051-0.493 0-0.967-0.081-1.409-0.231l0.031 0.009c-0.043-0.013-0.093-0.020-0.144-0.020-0.288 0-0.521 0.233-0.521 0.521 0 0.222 0.138 0.411 0.333 0.486l0.004 0.001c0.301 0.104 0.656 0.186 1.022 0.232l0.026 0.003c0.024 0.052 0.053 0.106 0.082 0.163 0.067 0.129 0.158 0.299 0.25 0.468 0.079 0.147 0.159 0.293 0.223 0.411l-0.717 1.242c-0.311-0.108-0.67-0.171-1.044-0.171-0 0-0 0-0 0v0c-0.001 0-0.001 0-0.002 0-1.814 0-3.284 1.47-3.284 3.284 0 0.443 0.088 0.865 0.246 1.25l-0.008-0.022h-1.219v-8.357c0-0 0-0 0-0 0-0.324-0.262-0.586-0.586-0.586h-6.827c-0.323 0-0.585 0.263-0.585 0.586 0 0 0 0 0 0v0 8.942c0 0.323 0.262 0.585 0.585 0.586h25.048c-0.685 2.593-2.383 4.701-4.633 5.919l-0.050 0.025c-0.16-0.133-0.297-0.285-0.409-0.456l-0.005-0.008c-0.546-0.815-1.295-1.264-2.11-1.264v0c-0.815 0-1.565 0.449-2.11 1.264-0.321 0.48-0.725 0.744-1.137 0.744s-0.816-0.264-1.137-0.744c-0.546-0.815-1.295-1.264-2.11-1.264s-1.565 0.449-2.11 1.264c-0.321 0.48-0.725 0.744-1.137 0.744s-0.816-0.264-1.137-0.744c-0.546-0.815-1.295-1.264-2.11-1.264v0c-0.815 0-1.565 0.449-2.11 1.264-0.289 0.431-0.645 0.688-1.013 0.735-0.037 0.005-0.080 0.008-0.124 0.009h-0c-0.411 0-0.816-0.264-1.137-0.744-0.107-0.158-0.285-0.26-0.487-0.26-0.324 0-0.586 0.262-0.586 0.586 0 0.122 0.037 0.235 0.1 0.328l-0.001-0.002c0.103 0.153 0.207 0.286 0.321 0.411l-0.003-0.003c0.503 0.555 1.126 0.855 1.792 0.855v0c0.815 0 1.564-0.449 2.11-1.264 0.322-0.48 0.725-0.744 1.137-0.744s0.816 0.264 1.137 0.744c0.546 0.815 1.295 1.264 2.11 1.264s1.565-0.449 2.11-1.264c0.322-0.48 0.725-0.744 1.137-0.744s0.816 0.264 1.137 0.744c0.546 0.815 1.295 1.264 2.11 1.264s1.564-0.449 2.11-1.264c0.322-0.48 0.725-0.744 1.137-0.744s0.816 0.264 1.137 0.744c0.546 0.815 1.295 1.264 2.11 1.264v0c0.815 0 1.565-0.449 2.11-1.264 0.322-0.48 0.725-0.744 1.137-0.744s0.816 0.264 1.137 0.744c0.106 0.159 0.285 0.262 0.488 0.262 0.324 0 0.586-0.262 0.586-0.586 0-0.122-0.038-0.236-0.102-0.33l0.001 0.002c-0.546-0.815-1.295-1.264-2.11-1.264-0.037 0-0.073 0.002-0.109 0.004 1.046-1.307 1.794-2.897 2.115-4.637l0.010-0.065c0.006-0.031 0.009-0.067 0.009-0.104 0-0.323-0.262-0.586-0.586-0.586-0 0-0 0-0 0h-1.284c0.15-0.362 0.236-0.782 0.236-1.223 0-0.001 0-0.003 0-0.004v0zM9.242 15.066c0 0.232-0.188 0.421-0.421 0.421v0h-1.952c-0.232 0-0.421-0.188-0.421-0.421v0-4.526c0-0.771 0.625-1.396 1.396-1.396 0 0 0 0 0 0h-0c0.771 0 1.396 0.625 1.396 1.396v0zM21.195 11.442l-1.61 2.789-1.61-2.789zM16.156 13.552c0.361 0.304 0.624 0.715 0.739 1.184l0.003 0.015h-1.435zM16.596 16.499h-3.759c-0.23-0.346-0.366-0.771-0.366-1.228 0-1.239 1.004-2.243 2.243-2.243 0.181 0 0.356 0.021 0.525 0.062l-0.015-0.003-1.112 1.926c-0.044 0.075-0.069 0.164-0.069 0.26 0 0.288 0.233 0.521 0.52 0.521h2.337c-0.064 0.268-0.169 0.504-0.308 0.714l0.005-0.008zM16.682 12.641l0.392-0.678 1.61 2.789h-0.724c-0.144-0.868-0.61-1.608-1.269-2.104l-0.008-0.006zM21.428 16.499h-3.663c0.084-0.203 0.152-0.441 0.192-0.687l0.003-0.019h1.625c0.192-0.001 0.359-0.104 0.45-0.258l0.001-0.002 2.061-3.569 0.397 0.688c-0.126 0.096-0.237 0.193-0.342 0.298l0-0c-0.595 0.594-0.963 1.415-0.963 2.322 0 0.443 0.088 0.865 0.246 1.25l-0.008-0.022zM26.357 16.499h-3.759c-0.23-0.346-0.366-0.771-0.366-1.228 0-0.62 0.251-1.18 0.657-1.586l0-0c0.043-0.043 0.087-0.083 0.132-0.121l1.137 1.969c0.094 0.148 0.256 0.244 0.441 0.244 0.288 0 0.521-0.233 0.521-0.521 0-0.089-0.023-0.173-0.062-0.247l0.001 0.003-1.11-1.922c0.158-0.039 0.338-0.062 0.525-0.062 1.24 0 2.246 1.005 2.247 2.245v0c0 0.002 0 0.004 0 0.006 0 0.454-0.136 0.877-0.369 1.23l0.005-0.008zM3.005 6.621h7.434c0.324 0 0.586-0.262 0.586-0.586s-0.262-0.586-0.586-0.586v0h-0.798l-0.793-1.619c-0.098-0.196-0.296-0.328-0.526-0.328-0.324 0-0.586 0.262-0.586 0.586 0 0.094 0.022 0.182 0.061 0.261l-0.002-0.003 0.541 1.104h-5.331c-0.324 0-0.586 0.262-0.586 0.586s0.262 0.586 0.586 0.586v0zM11.669 6.108c0.098 0.196 0.296 0.328 0.526 0.328 0.324 0 0.586-0.262 0.586-0.586 0-0.094-0.022-0.182-0.061-0.261l0.002 0.003-0.863-1.763c-0.098-0.196-0.296-0.328-0.526-0.328-0.324 0-0.586 0.262-0.586 0.586 0 0.094 0.022 0.182 0.061 0.261l-0.002-0.003zM11.303 20.892c0.275-0.275 0.444-0.654 0.444-1.073 0-0.838-0.679-1.517-1.517-1.517s-1.517 0.679-1.517 1.517c0 0.838 0.679 1.517 1.517 1.517v0c0.001 0 0.003 0 0.004 0 0.418 0 0.795-0.17 1.068-0.444l0-0zM9.754 19.819c0-0.263 0.213-0.475 0.475-0.475s0.475 0.213 0.475 0.475c0 0.263-0.213 0.475-0.475 0.475v0c-0.001 0-0.002 0-0.003 0-0.261 0-0.473-0.212-0.473-0.473 0-0.001 0-0.002 0-0.002v0zM29.482 26.583c-0.146-0.218-0.306-0.408-0.485-0.578l-0.001-0.001c-0.417-0.415-0.989-0.675-1.622-0.684l-0.002-0c-0.815 0-1.565 0.449-2.11 1.264-0.032 0.048-0.065 0.093-0.099 0.136-0.304 0.393-0.667 0.608-1.038 0.608s-0.735-0.215-1.038-0.608c-0.034-0.044-0.067-0.089-0.099-0.136-0.546-0.815-1.295-1.264-2.11-1.264s-1.565 0.449-2.11 1.264c-0.032 0.048-0.065 0.093-0.099 0.136-0.304 0.393-0.667 0.608-1.038 0.608s-0.735-0.215-1.038-0.608c-0.034-0.044-0.067-0.089-0.099-0.136-0.546-0.815-1.295-1.264-2.11-1.264s-1.565 0.449-2.11 1.264c-0.032 0.048-0.065 0.093-0.099 0.136-0.304 0.393-0.667 0.608-1.038 0.608s-0.735-0.215-1.038-0.608c-0.034-0.044-0.067-0.088-0.099-0.136-0.546-0.815-1.295-1.264-2.11-1.264v0c-0.815 0-1.565 0.449-2.11 1.264-0.032 0.048-0.065 0.093-0.099 0.136-0.304 0.393-0.667 0.608-1.038 0.608s-0.735-0.215-1.038-0.608c-0.034-0.044-0.067-0.088-0.099-0.136-0.107-0.158-0.285-0.26-0.487-0.26-0.324 0-0.586 0.262-0.586 0.586 0 0.122 0.037 0.235 0.1 0.328l-0.001-0.002c0.546 0.815 1.295 1.263 2.11 1.263v0c0.815 0 1.564-0.449 2.11-1.264 0.132-0.202 0.292-0.373 0.478-0.512l0.005-0.004c0.178-0.142 0.406-0.229 0.654-0.229s0.477 0.086 0.657 0.23l-0.002-0.002c0.19 0.143 0.351 0.314 0.478 0.508l0.005 0.008c0.546 0.815 1.295 1.264 2.11 1.264 0.815-0.002 1.565-0.449 2.11-1.264 0.132-0.202 0.292-0.373 0.478-0.512l0.005-0.004c0.178-0.142 0.406-0.229 0.654-0.229s0.477 0.086 0.657 0.23l-0.002-0.002c0.19 0.143 0.351 0.314 0.478 0.508l0.005 0.008c0.546 0.816 1.295 1.264 2.11 1.264s1.564-0.449 2.11-1.264c0.132-0.202 0.292-0.373 0.477-0.512l0.005-0.004c0.178-0.142 0.406-0.229 0.654-0.229s0.477 0.086 0.657 0.23l-0.002-0.002c0.19 0.143 0.351 0.314 0.478 0.508l0.005 0.008c0.546 0.815 1.295 1.264 2.11 1.264v0c0.815 0 1.564-0.449 2.11-1.264 0.132-0.202 0.292-0.373 0.478-0.512l0.005-0.004c0.178-0.142 0.406-0.229 0.654-0.229s0.477 0.086 0.657 0.23l-0.002-0.002c0.19 0.143 0.351 0.314 0.478 0.508l0.005 0.008c0.106 0.16 0.286 0.265 0.49 0.265 0.324 0 0.586-0.262 0.586-0.586 0-0.124-0.038-0.238-0.104-0.333l0.001 0.002zM14.046 21.337c0.838 0 1.517-0.679 1.517-1.517s-0.679-1.517-1.517-1.517c-0.838 0-1.517 0.679-1.517 1.517v0c-0 0.003-0 0.006-0 0.010 0 0.832 0.675 1.507 1.507 1.507 0.003 0 0.007 0 0.010-0h-0.001zM13.71 19.483c0.086-0.086 0.205-0.139 0.336-0.139 0.263 0 0.475 0.213 0.475 0.475s-0.213 0.475-0.475 0.475c-0.263 0-0.475-0.213-0.475-0.475v0c0-0 0-0.001 0-0.001 0-0.131 0.053-0.249 0.139-0.335l0-0zM14.198 6.621h10.98v4.301c0 0.324 0.262 0.586 0.586 0.586s0.586-0.262 0.586-0.586v-4.301h1.212c0.324 0 0.586-0.262 0.586-0.586s-0.262-0.586-0.586-0.586v0h-13.364c-0.324 0-0.586 0.262-0.586 0.586s0.262 0.586 0.586 0.586v0zM17.862 21.337c0 0 0.001 0 0.001 0 0.65 0 1.205-0.41 1.419-0.986l0.003-0.010h0.58c0.006 0 0.014 0 0.022 0 0.288 0 0.521-0.233 0.521-0.521s-0.233-0.521-0.521-0.521c-0.008 0-0.015 0-0.023 0l0.001-0h-0.581c-0.219-0.586-0.774-0.995-1.424-0.995-0.837 0-1.516 0.679-1.516 1.516s0.679 1.516 1.516 1.516c0 0 0.001 0 0.001 0h-0zM17.525 19.483c0.086-0.086 0.205-0.139 0.336-0.139 0.263 0 0.475 0.213 0.475 0.475s-0.213 0.475-0.475 0.475c-0.263 0-0.475-0.213-0.475-0.475v0c0-0 0-0.001 0-0.001 0-0.131 0.053-0.249 0.139-0.335l0-0z"></path>
</svg>
