<!-- Generated by IcoMoon.io -->
<svg version="1.1" xmlns="http://www.w3.org/2000/svg" width="32" height="32" viewBox="0 0 32 32">
<title>cyc_city-tours</title>
<path d="M14.078 10.883c0 0 0 0 0.001 0 0.162 0 0.308-0.066 0.414-0.172v0l1.232-1.232 0.97 0.97c0.106 0.106 0.252 0.172 0.414 0.172s0.308-0.066 0.414-0.172l0.97-0.97 0.97 0.97c0.106 0.106 0.252 0.172 0.414 0.172s0.308-0.066 0.414-0.172l1.384-1.384c0.106-0.106 0.172-0.252 0.172-0.414 0-0.324-0.262-0.586-0.586-0.586-0.162 0-0.308 0.066-0.414 0.172l-0.97 0.97-0.969-0.97c-0.106-0.106-0.252-0.172-0.414-0.172s-0.308 0.066-0.414 0.172l-0.97 0.97-0.97-0.97c-0.106-0.106-0.252-0.172-0.414-0.172s-0.308 0.066-0.414 0.172l-1.647 1.647c-0.106 0.106-0.171 0.252-0.171 0.414 0 0.324 0.262 0.586 0.586 0.586v0zM20.31 27.506h-2.509c-0.515-0.69-1.098-1.498-1.675-2.412v-3.473c-0-0.323-0.262-0.586-0.586-0.586h-1.505c-0.71-1.723-1.303-3.748-1.682-5.848l-0.028-0.186h0.793c0.324 0 0.586-0.262 0.586-0.586s-0.262-0.586-0.586-0.586h-0.987c-0.255-1.63-0.436-3.57-0.502-5.54l-0.002-0.082c0.236-0.079 0.402-0.298 0.402-0.556v0-1.699c-0-0.324-0.262-0.586-0.586-0.586h-0.672v-1.458c0-0.324-0.262-0.586-0.586-0.586s-0.586 0.262-0.586 0.586v0 1.458h-0.672c-0.324 0-0.586 0.262-0.586 0.586v0 1.699c0 0.258 0.167 0.477 0.398 0.555l0.004 0.001c-0.069 2.052-0.25 3.992-0.539 5.897l0.034-0.275h-0.988c-0.324 0-0.586 0.262-0.586 0.586s0.262 0.586 0.586 0.586h0.793c-0.407 2.286-1 4.312-1.783 6.239l0.074-0.205h-1.505c-0.324 0-0.586 0.262-0.586 0.586v0 3.473c-0.643 1.019-1.294 1.907-1.85 2.646-0.073 0.097-0.118 0.219-0.118 0.352 0 0.324 0.262 0.586 0.586 0.586 0 0 0 0 0 0h3.463c0 0 0 0 0 0 0.323 0 0.586-0.262 0.586-0.586 0-0 0-0 0-0v0c0-0 0-0 0-0 0-1.808 1.466-3.274 3.274-3.274 1.601 0 2.934 1.15 3.218 2.668l0.003 0.020h-1.729c-0.324 0-0.586 0.262-0.586 0.586s0.262 0.586 0.586 0.586h8.633c0.324 0 0.586-0.262 0.586-0.586s-0.262-0.586-0.586-0.586v0zM9.513 6.538h1.343v0.527h-1.343zM9.915 8.237h0.539c0.069 2.044 0.245 3.974 0.525 5.871l-0.034-0.279h-1.522c0.247-1.618 0.423-3.548 0.489-5.507l0.002-0.085zM9.234 15h1.9c0.396 2.291 0.966 4.318 1.716 6.255l-0.075-0.221h-1.469l-0.559-1.937c-0.073-0.246-0.297-0.423-0.563-0.423s-0.49 0.177-0.562 0.419l-0.001 0.004-0.559 1.937h-1.469c0.675-1.716 1.245-3.743 1.612-5.84l0.028-0.194zM14.592 27.506c-0.299-2.191-2.159-3.86-4.408-3.86s-4.108 1.67-4.405 3.837l-0.003 0.023h-1.754c0.418-0.58 0.863-1.226 1.304-1.934 0.056-0.088 0.089-0.195 0.089-0.31v0-3.056h9.538v3.056c0 0.115 0.033 0.222 0.090 0.312l-0.001-0.002c0.441 0.708 0.886 1.354 1.304 1.934zM28.289 20.311c-0.886-0.887-2.111-1.435-3.463-1.435-0.558 0-1.094 0.093-1.593 0.265l0.034-0.010-1.097-2.311v-1.525c-0-1.006-0.815-1.821-1.821-1.821h-1.703c-0.324 0-0.586 0.262-0.586 0.586s0.262 0.586 0.586 0.586h1.703c0.358 0 0.649 0.291 0.649 0.649v0 1.071h-6.767c-0.32 0.004-0.579 0.265-0.579 0.586s0.258 0.582 0.578 0.586h6.304l-3.659 5.931c-0.055 0.087-0.087 0.194-0.087 0.308 0 0.324 0.262 0.586 0.586 0.586 0.21 0 0.394-0.11 0.497-0.276l0.001-0.002 3.644-5.907 0.692 1.458c-1.38 0.882-2.282 2.406-2.282 4.141 0 2.705 2.193 4.898 4.898 4.898s4.898-2.193 4.898-4.898c0-1.353-0.549-2.578-1.435-3.464v0zM24.824 27.506c-0 0-0.001 0-0.001 0-2.059 0-3.728-1.669-3.728-3.728 0-1.272 0.637-2.395 1.609-3.068l0.012-0.008 1.578 3.326c0.096 0.199 0.297 0.334 0.529 0.334 0.324 0 0.586-0.262 0.586-0.586 0-0.091-0.021-0.178-0.058-0.255l0.002 0.003-1.579-3.327c0.314-0.096 0.676-0.151 1.050-0.151 2.059 0 3.729 1.669 3.729 3.729s-1.669 3.729-3.729 3.729c-0 0-0 0-0.001 0h0z"></path>
</svg>
