<!-- Generated by IcoMoon.io -->
<svg version="1.1" xmlns="http://www.w3.org/2000/svg" width="32" height="32" viewBox="0 0 32 32">
<title>cyc_gravel</title>
<path d="M23.739 18.53l0.274 0.627c0.091 0.205 0.293 0.345 0.528 0.345 0.318 0 0.576-0.258 0.576-0.576 0-0.084-0.018-0.163-0.050-0.235l0.001 0.004-0.072-0.165zM21.848 13.794v3.489c0.001 0.511 0.415 0.926 0.926 0.926h3.753c0.511-0.001 0.925-0.415 0.926-0.926v-3.489c-0.001-0.511-0.415-0.925-0.926-0.926h-3.753c-0.511 0.001-0.926 0.415-0.926 0.926v0zM6.492 11.213l2.822 0.715c0.091 0.024 0.195 0.038 0.303 0.038 0.681 0 1.233-0.552 1.233-1.233 0-0.573-0.391-1.055-0.921-1.193l-0.009-0.002-2.822-0.716c-0.092-0.024-0.197-0.038-0.305-0.038h-0c-0.68 0.002-1.231 0.553-1.231 1.233 0 0.573 0.391 1.055 0.921 1.193l0.009 0.002zM19.198 13.557c0.068-0.109 0.108-0.241 0.108-0.383 0-0.405-0.327-0.733-0.732-0.734h-0c-0.061 0-0.121 0.008-0.178 0.022l0.005-0.001-3.843 0.925c-0.329 0.077-0.57 0.368-0.57 0.715 0 0.405 0.328 0.734 0.734 0.734 0.064 0 0.125-0.008 0.184-0.023l-0.005 0.001 3.843-0.925c0.193-0.047 0.353-0.166 0.452-0.327l0.002-0.003zM27.774 14.19v1.467c0.906 0.859 1.47 2.071 1.47 3.415 0 2.598-2.106 4.703-4.703 4.703s-4.703-2.106-4.703-4.703c0-1.448 0.654-2.743 1.684-3.606l0.007-0.006v-1.41c-1.716 1.042-2.845 2.901-2.845 5.023 0 3.235 2.622 5.857 5.857 5.857s5.857-2.622 5.857-5.857c0-2.030-1.033-3.819-2.602-4.87l-0.021-0.013zM17.243 21.723h-0.636l-0.322-1.057c0.289-0.255 0.471-0.626 0.471-1.040 0-0.244-0.063-0.473-0.174-0.672l0.004 0.007 4.633-6.186 0.335 0.766c0.096-0.445 0.419-0.797 0.839-0.933l0.009-0.002-0.524-1.197v-0.001l-0.233-0.533v-0.001l-0.886-2.023h2.546c0.002-0 0.005-0 0.007-0 0.337 0 0.61 0.273 0.61 0.61s-0.273 0.61-0.61 0.61c-0.003 0-0.005-0-0.008-0h0c-0.318 0-0.576 0.258-0.576 0.576s0.258 0.576 0.576 0.576v0c0.973 0 1.761-0.789 1.761-1.761s-0.789-1.761-1.761-1.761v0h-3.427c0 0 0 0 0 0-0.318 0-0.576 0.258-0.576 0.576 0 0.084 0.018 0.163 0.050 0.235l-0.001-0.004 0.965 2.203-7.21 1.766-1.222-3.532c-0.048-0.136-0.148-0.244-0.276-0.3l-0.003-0.001c0.657-0.203 1.37-0.425 1.421-0.441 0.237-0.075 0.405-0.293 0.405-0.55 0-0.318-0.258-0.576-0.576-0.576h-3.645c-0.318 0-0.576 0.258-0.576 0.576 0 0.035 0.003 0.069 0.009 0.102l-0.001-0.003c0.158 0.903 0.977 1.242 1.633 1.258h0.017c0.082-0 0.161-0.012 0.235-0.035l-0.006 0.002c0.068-0.020 0.232-0.070 0.445-0.136-0.049 0.077-0.079 0.171-0.079 0.272 0 0.060 0.010 0.117 0.029 0.171l-0.001-0.004 1.273 3.68-1.26 1.399c-0.958-0.711-2.163-1.138-3.469-1.138-3.233 0-5.854 2.621-5.854 5.854s2.621 5.854 5.854 5.854c2.882 0 5.278-2.083 5.764-4.825l0.005-0.035c0.327 0.023 0.606 0.042 0.844 0.058 0.184 0.468 0.601 0.807 1.104 0.877l0.007 0.001 0.36 1.182c0.123 0.403 0.492 0.691 0.928 0.691 0.001 0 0.003 0 0.004 0h0.767c0.318 0 0.576-0.258 0.576-0.576s-0.258-0.576-0.576-0.576v0zM7.459 23.774c-0.002 0-0.003 0-0.005 0-2.598 0-4.704-2.106-4.704-4.704s2.106-4.704 4.704-4.704c1.011 0 1.947 0.319 2.714 0.861l-0.015-0.010-3.122 3.468c-0.002 0.002-0.003 0.004-0.005 0.006-0.031 0.035-0.058 0.075-0.080 0.118l-0.002 0.003c-0.002 0.005-0.005 0.009-0.007 0.014-0.008 0.017-0.017 0.037-0.024 0.059l-0.001 0.004c-0.001 0.002-0.001 0.003-0.002 0.005-0.006 0.019-0.012 0.043-0.017 0.067l-0.001 0.003c-0.001 0.005-0.002 0.011-0.002 0.016-0.003 0.018-0.005 0.037-0.006 0.056 0 0.007-0.001 0.014-0.001 0.021 0 0.004-0.001 0.009-0.001 0.013v1.003c0 0.318 0.258 0.576 0.576 0.576s0.576-0.258 0.576-0.576v0-0.383c1.713 0.125 3.028 0.221 4.038 0.294-0.445 2.174-2.341 3.787-4.614 3.791h-0zM8.674 18.581l2.334-2.593c0.666 0.761 1.092 1.748 1.148 2.832l0 0.011c-1.101-0.078-2.341-0.168-3.482-0.251zM14.144 18.972c-0.25-0.017-0.53-0.037-0.833-0.058-0.039-1.465-0.612-2.79-1.531-3.792l0.004 0.004 0.817-0.908 1.766 4.448c-0.085 0.089-0.159 0.189-0.219 0.298l-0.004 0.007zM15.664 18.27c-0.066-0.015-0.144-0.025-0.223-0.029l-0.003-0-1.299-3.272c-0.281-0.191-0.463-0.509-0.463-0.869 0-0.082 0.009-0.162 0.027-0.238l-0.001 0.007-0.128-0.323 0.311-0.076c0.145-0.194 0.352-0.335 0.591-0.394l0.007-0.001 3.843-0.925c0.074-0.019 0.159-0.029 0.246-0.029 0.158 0 0.307 0.035 0.441 0.098l-0.006-0.003 1.459-0.357-0.856 1.143c0.009 0.053 0.015 0.113 0.015 0.175 0 0.494-0.34 0.908-0.799 1.021l-0.007 0.002-0.129 0.031z"></path>
</svg>
