<!-- Generated by IcoMoon.io -->
<svg version="1.1" xmlns="http://www.w3.org/2000/svg" width="32" height="32" viewBox="0 0 32 32">
<title>cyc_mtb</title>
<path d="M25.078 13.23c-0 0-0.001 0-0.001 0-0.617 0-1.213 0.093-1.773 0.266l0.043-0.011-1.214-2.96-0.202-0.691 0.994-0.307c0.412-0.131 0.741-0.422 0.918-0.799l0.004-0.009 0.195-0.423c0.306-0.122 0.518-0.415 0.518-0.758 0-0.449-0.364-0.814-0.814-0.814s-0.814 0.364-0.814 0.814c0 0.096 0.017 0.188 0.047 0.274l-0.002-0.006-0.195 0.423c-0.040 0.085-0.112 0.149-0.201 0.178l-0.002 0.001-1.545 0.478c-0.241 0.076-0.413 0.298-0.413 0.56 0 0.059 0.009 0.115 0.025 0.169l-0.001-0.004 0.21 0.719-7.553 2.313-1.201-3.011c0.559-0.173 1.081-0.335 1.125-0.349 0.241-0.076 0.412-0.298 0.412-0.559 0-0.324-0.262-0.586-0.586-0.586-0 0-0 0-0 0h-3.633c-0 0-0 0-0 0-0.323 0-0.586 0.262-0.586 0.586 0 0.036 0.003 0.070 0.009 0.104l-0.001-0.004c0.158 0.908 0.981 1.248 1.638 1.264h0.019c0.083-0 0.162-0.013 0.238-0.036l-0.006 0.002c0.060-0.018 0.196-0.059 0.374-0.114l1.278 3.206-1.567 1.519c-1.041-0.886-2.402-1.426-3.889-1.426-3.323 0-6.017 2.694-6.017 6.017s2.694 6.017 6.017 6.017c3.118 0 5.682-2.372 5.987-5.41l0.002-0.025h0.822c0.238 0.635 0.84 1.079 1.546 1.079 0.079 0 0.156-0.006 0.232-0.016l-0.009 0.001 0.288 1.271c-0.174 0.103-0.289 0.291-0.289 0.505 0 0.323 0.262 0.585 0.585 0.585 0.001 0 0.001 0 0.002 0h1.119c0.32-0.004 0.579-0.265 0.579-0.586s-0.258-0.582-0.578-0.586h-0.234l-0.403-1.777c0.239-0.285 0.384-0.655 0.384-1.060 0-0.321-0.091-0.621-0.25-0.875l0.004 0.007 4.838-6.197 0.715 1.743c-1.918 1.032-3.199 3.024-3.199 5.316 0 3.323 2.694 6.017 6.017 6.017s6.017-2.694 6.017-6.017c0-3.323-2.694-6.017-6.017-6.017-0.001 0-0.002 0-0.003 0h0zM6.922 23.645c-0.001 0-0.003 0-0.005 0-2.426 0-4.394-1.967-4.394-4.393s1.967-4.393 4.394-4.393c1.032 0 1.981 0.356 2.73 0.951l-0.009-0.007-2.481 2.405c-0.070-0.016-0.151-0.026-0.234-0.026-0.591 0-1.070 0.479-1.070 1.070 0 0.386 0.204 0.724 0.51 0.912l0.005 0.003-0.032 0.859c-0 0.006-0 0.014-0 0.022 0 0.316 0.25 0.573 0.563 0.585l0.001 0c0.007 0 0.015 0 0.022 0 0.316-0 0.573-0.25 0.585-0.563l0-0.001 0.035-0.947c0.109-0.078 0.2-0.173 0.272-0.281l0.002-0.004h3.458c-0.301 2.16-2.135 3.805-4.353 3.808h-0zM8.368 18.665l2.087-2.023c0.423 0.566 0.715 1.253 0.818 2l0.003 0.023zM13.736 18.665h-0.822c-0.121-1.21-0.586-2.294-1.294-3.173l0.009 0.012 1.162-1.126 1.396 3.632c-0.197 0.176-0.351 0.396-0.448 0.644l-0.004 0.011zM15.789 17.662c-0.148-0.048-0.319-0.076-0.496-0.076-0 0-0.001 0-0.001 0h0c-0.004 0-0.008 0.001-0.012 0.001l-1.488-3.871 6.674-2.043zM25.078 23.645c-0 0-0.001 0-0.001 0-2.426 0-4.392-1.966-4.392-4.392 0-1.619 0.876-3.033 2.179-3.795l0.021-0.011 1.312 3.198c-0.118 0.169-0.188 0.38-0.188 0.606 0 0.591 0.479 1.070 1.070 1.070s1.070-0.479 1.070-1.070c0-0.52-0.37-0.953-0.862-1.050l-0.007-0.001-1.312-3.2c0.333-0.091 0.716-0.143 1.11-0.143 2.427 0 4.394 1.967 4.394 4.394s-1.967 4.394-4.394 4.394c-0 0-0 0-0 0v0zM7.863 12.745l1.678 0.211c0.049 0.007 0.106 0.010 0.164 0.010 0 0 0 0 0 0v0c0.713-0.001 1.29-0.58 1.29-1.293 0-0.657-0.49-1.2-1.125-1.282l-0.006-0.001-1.678-0.211c-0.050-0.007-0.107-0.011-0.165-0.011-0.714 0-1.293 0.579-1.293 1.293 0 0.659 0.492 1.202 1.129 1.282l0.006 0.001z"></path>
</svg>
