<svg width="32" height="32" viewBox="0 0 32 32" fill="none" xmlns="http://www.w3.org/2000/svg">
<rect x="1" y="1" width="30" height="30" rx="15" fill="#72A747"/>
<path fill-rule="evenodd" clip-rule="evenodd" d="M9.5918 14.5831C9.5918 11.0061 12.4996 8.11438 16.0203 8.11438C19.5409 8.11438 22.4487 11.0061 22.4393 14.5831C22.4175 16.3609 21.8245 18.0814 20.7523 19.4772C19.5927 21.0465 18.1784 22.3988 16.5716 23.4747C16.4135 23.5996 16.2197 23.6673 16.0203 23.6673C15.8208 23.6673 15.627 23.5996 15.469 23.4747C13.8582 22.404 12.4431 21.0509 11.2882 19.4772C10.2127 18.0827 9.61624 16.362 9.5918 14.5831ZM16.016 16.9513C17.4802 16.9513 18.6671 15.7644 18.6671 14.3002C18.6671 12.8361 17.4802 11.6491 16.016 11.6491C14.5519 11.6491 13.3649 12.8361 13.3649 14.3002C13.3649 15.7644 14.5519 16.9513 16.016 16.9513Z" fill="white"/>
<rect x="1" y="1" width="30" height="30" rx="15" stroke="white" stroke-width="2"/>
</svg>
