<svg width="20" height="14" viewBox="0 0 20 14" fill="none" xmlns="http://www.w3.org/2000/svg">
<path fill-rule="evenodd" clip-rule="evenodd" d="M18.5 0H1.5C0.671573 0 0 0.671573 0 1.5V12.5C0 13.3284 0.671573 14 1.5 14H18.5C19.3284 14 20 13.3284 20 12.5V1.5C20 0.671573 19.3284 0 18.5 0ZM18.2 1L11.1 8.2C10.483 8.78414 9.51701 8.78414 8.9 8.2L1.8 1H18.2ZM1 1.6V12.3L6.3 7L1 1.6ZM1.7 13L7 7.7L8.2 8.9C9.22492 9.81672 10.7751 9.81672 11.8 8.9L13 7.7L18.3 13H1.7ZM19 1.6L13.7 7L19 12.3V1.6Z" fill="black"/>
</svg>
