<!-- Generated by IcoMoon.io -->
<svg version="1.1" xmlns="http://www.w3.org/2000/svg" width="32" height="32" viewBox="0 0 32 32">
<title>hiking-15</title>
<path d="M19.2 7.467c0 1.767-1.433 3.2-3.2 3.2s-3.2-1.433-3.2-3.2c0-1.767 1.433-3.2 3.2-3.2s3.2 1.433 3.2 3.2z"></path>
<path d="M26.667 17.067c0-0.589-0.478-1.067-1.067-1.067v0h-3.825l-2.886-2.889c-0.193-0.192-0.459-0.311-0.753-0.311-0.001 0-0.001 0-0.002 0h-5.363c-0.205 0.010-0.392 0.078-0.547 0.188l0.003-0.002c-0.035 0.021-0.065 0.042-0.094 0.064l0.002-0.002c-0.149 0.121-0.263 0.28-0.328 0.462l-0.002 0.007c0 0.013-0.017 0.017-0.021 0.030l-4.267 14.933c-0.030 0.094-0.048 0.203-0.048 0.316 0 0.477 0.314 0.882 0.746 1.018l0.008 0.002c0.093 0.031 0.2 0.049 0.31 0.051h0.001c0 0 0 0 0 0 0.477 0 0.881-0.313 1.017-0.745l0.002-0.008 2.067-7.78h2.773l0.54 2.306v5.161c0 0.589 0.478 1.067 1.067 1.067s1.067-0.478 1.067-1.067v0-5.333c0-0.001 0-0.003 0-0.004 0-0.119-0.020-0.234-0.056-0.341l0.002 0.008-0.48-1.796 2.133-5.333 1.92 1.822c0.191 0.191 0.455 0.31 0.746 0.311h3.51l-1.899 10.562c-0.006 0.031-0.010 0.066-0.010 0.103 0 0.26 0.187 0.477 0.433 0.524l0.003 0.001c0.016 0.002 0.034 0.003 0.052 0.003s0.037-0.001 0.054-0.003l-0.002 0c0 0 0 0 0 0 0.257 0 0.471-0.181 0.522-0.423l0.001-0.003 1.954-10.839c0.414-0.148 0.707-0.534 0.715-0.989v-0.001z"></path>
<path d="M5.055 17.764l2.117-6.723c0.088-0.281 0.388-0.437 0.669-0.349l2.454 0.773c0.281 0.088 0.437 0.388 0.349 0.669l-2.117 6.723c-0.088 0.281-0.388 0.437-0.669 0.349l-2.454-0.773c-0.281-0.088-0.437-0.388-0.349-0.669z"></path>
</svg>
