<svg width="39" height="38" viewBox="0 0 39 38" fill="none" xmlns="http://www.w3.org/2000/svg">
<path fill-rule="evenodd" clip-rule="evenodd" d="M32.7812 7.92969H6.21875C4.92433 7.92969 3.875 8.97902 3.875 10.2734V27.4609C3.875 28.7554 4.92433 29.8047 6.21875 29.8047H32.7812C34.0757 29.8047 35.125 28.7554 35.125 27.4609V10.2734C35.125 8.97902 34.0757 7.92969 32.7812 7.92969ZM32.3125 9.49219L21.2188 20.7422C20.2547 21.6549 18.7453 21.6549 17.7812 20.7422L6.6875 9.49219H32.3125ZM5.4375 10.4297V27.1484L13.7188 18.8672L5.4375 10.4297ZM6.53125 28.2422L14.8125 19.9609L16.6875 21.8359C18.2889 23.2683 20.7111 23.2683 22.3125 21.8359L24.1875 19.9609L32.4688 28.2422H6.53125ZM33.5625 10.4297L25.2812 18.8672L33.5625 27.1484V10.4297Z" fill="#003300"/>
</svg>
