<svg width="18" height="18" viewBox="0 0 18 18" fill="none" xmlns="http://www.w3.org/2000/svg">
<path fill-rule="evenodd" clip-rule="evenodd" d="M15.5542 3.15382C16.9429 4.54989 17.7259 6.43674 17.7336 8.40586C17.7336 8.42559 17.7237 8.46506 17.7237 8.46506C17.7169 8.58155 17.6683 8.69167 17.5867 8.77509C17.5051 8.85851 17.396 8.90959 17.2797 8.91892C17.1494 8.92721 17.0209 8.88449 16.9215 8.79979C16.8221 8.7151 16.7595 8.59506 16.7469 8.46506C16.7522 6.73705 16.0714 5.07759 14.8542 3.85109C13.6369 2.62458 11.9826 1.93129 10.2547 1.92346C10.1899 1.92217 10.126 1.90814 10.0666 1.88215C10.0072 1.85617 9.95357 1.81874 9.90867 1.77201C9.86377 1.72528 9.82852 1.67017 9.80493 1.60981C9.78134 1.54946 9.76987 1.48504 9.77118 1.42026C9.77377 1.29375 9.82584 1.1733 9.91623 1.08475C10.0066 0.996209 10.1281 0.946629 10.2547 0.946655H10.3138C12.2829 0.964801 14.1656 1.75775 15.5542 3.15382ZM13.4041 5.40441C14.232 6.23225 14.6993 7.35354 14.7045 8.52427H14.7144C14.7144 8.65604 14.6628 8.78256 14.5705 8.87664C14.4783 8.97073 14.3528 9.02489 14.2211 9.02747C14.0902 9.02747 13.9647 8.9755 13.8722 8.88298C13.7797 8.79046 13.7277 8.66498 13.7277 8.53414C13.7251 7.62168 13.3615 6.74733 12.7163 6.10212C12.0711 5.4569 11.1967 5.09328 10.2843 5.09067C10.1703 5.06776 10.0678 5.00611 9.99411 4.91617C9.92046 4.82624 9.88021 4.71358 9.88021 4.59734C9.88021 4.48109 9.92046 4.36843 9.99411 4.2785C10.0678 4.18857 10.1703 4.12691 10.2843 4.104C11.455 4.1092 12.5763 4.57657 13.4041 5.40441ZM4.58253 13.9599C6.93159 16.364 10.1125 17.7767 13.4712 17.9075C13.6727 17.8932 13.8649 17.8174 14.022 17.6904C14.179 17.5633 14.2933 17.3911 14.3493 17.1971C14.8723 15.5 15.2472 13.2504 14.2605 12.54C13.3957 12.0554 12.4366 11.7626 11.4485 11.6816H11.2413C10.1363 11.5336 9.65279 11.9973 9.56399 12.5203C9.52972 12.6412 9.46963 12.7532 9.38787 12.8486C9.3061 12.9439 9.2046 13.0205 9.09039 13.0728C7.76315 12.1474 6.63016 10.9708 5.75545 9.60961C5.76185 9.45915 5.81063 9.31356 5.89617 9.18962C5.9817 9.06568 6.10052 8.96843 6.23892 8.90907C6.52223 8.74919 6.74404 8.49928 6.86916 8.19899C6.99428 7.89869 7.01555 7.56522 6.92959 7.25147V7.04427C6.85145 6.03953 6.56589 5.0619 6.09092 4.17307C5.40025 3.1272 3.17039 3.56134 1.45359 4.11387C1.27336 4.17603 1.11728 4.29335 1.00747 4.4492C0.897672 4.60504 0.839726 4.79151 0.841853 4.98214C0.894823 8.34295 2.23347 11.5557 4.58253 13.9599ZM1.71999 4.9624C2.60202 4.6454 3.52662 4.46247 4.46292 4.41974C4.90692 4.41974 5.25225 4.50854 5.44959 4.68614C5.84004 5.46886 6.07462 6.32003 6.14025 7.19227V7.40934C6.21767 7.96093 6.01985 8.07593 5.90051 8.14531C5.89817 8.14667 5.89586 8.14801 5.89359 8.14934C5.57329 8.28921 5.30541 8.52673 5.12821 8.82798C4.951 9.12922 4.87355 9.47877 4.90692 9.82667L5.00559 9.99441C5.99766 11.565 7.30864 12.9096 8.85359 13.9411L9.00159 14.0891L9.20879 14.02C9.51282 13.9243 9.78744 13.7527 10.0067 13.5214C10.226 13.29 10.3826 13.0066 10.4619 12.6979C10.4915 12.5795 10.8171 12.5795 11.1328 12.5795H11.3499C12.1973 12.6569 13.0216 12.8981 13.7771 13.2899C14.1224 13.5267 14.1915 14.7896 13.4712 17.0195C10.3422 16.8936 7.38025 15.5737 5.19453 13.3311C3.00881 11.0885 1.7654 8.09364 1.71999 4.9624Z" fill="#003300"/>
</svg>
