<svg width="14" height="20" viewBox="0 0 14 20" fill="none" xmlns="http://www.w3.org/2000/svg">
<path fill-rule="evenodd" clip-rule="evenodd" d="M1.31007 9.64999L7.00007 20L12.6901 9.62999C13.221 8.67218 13.4997 7.59512 13.5001 6.49999C13.4968 3.78345 11.8046 1.35543 9.25708 0.412157C6.70956 -0.531112 3.84413 0.209341 2.07252 2.26871C0.300913 4.32808 -0.00317883 7.27197 1.31007 9.64999ZM2.25891 3.70961C3.24764 2.03022 5.05124 0.999438 7.00007 0.999991C8.95675 0.991898 10.7704 2.02398 11.7629 3.71032C12.7553 5.39666 12.7771 7.4833 11.8201 9.18999L7.00007 18L2.19007 9.16999C1.244 7.46621 1.27019 5.38899 2.25891 3.70961Z" fill="black"/>
</svg>
