<svg width="32" height="32" viewBox="0 0 32 32" fill="none" xmlns="http://www.w3.org/2000/svg">
<rect x="1" y="1" width="30" height="30" rx="15" fill="#72A747"/>
<path fill-rule="evenodd" clip-rule="evenodd" d="M10.9523 8C11.4049 8 11.7718 8.38376 11.7718 8.85714V9.49169C12.8051 9.66189 14.3012 9.71525 15.7909 9.24781C17.7575 8.63074 19.7157 8.86581 20.7466 9.13139C21.1084 9.22461 21.3328 9.56865 21.3328 9.93334V16.8245C21.3328 17.3691 20.8596 17.7624 20.3616 17.6811C19.1577 17.4845 17.7339 17.4228 15.923 17.8017C14.9184 18.0118 13.8972 18.0724 13.0083 18.0315C12.561 18.011 12.1418 17.9645 11.7718 17.8966L11.7718 23.1429C11.7718 23.6162 11.4049 24 10.9523 24C10.4997 24 10.1328 23.6162 10.1328 23.1429V8.85714C10.1328 8.38376 10.4997 8 10.9523 8Z" fill="white"/>
<rect x="1" y="1" width="30" height="30" rx="15" stroke="white" stroke-width="2"/>
</svg>
