<!-- Generated by IcoMoon.io -->
<svg version="1.1" xmlns="http://www.w3.org/2000/svg" width="32" height="32" viewBox="0 0 32 32">
<title>vc-mtb</title>
<path d="M29.952 19.136c-0.096 0-0.224-0.064-0.288-0.16l-7.072-12.064-2.624 3.648c-0.064 0.096-0.16 0.128-0.288 0.128-0.096 0-0.224-0.064-0.256-0.16l-4.128-7.68-2.304 2.464c-0.128 0.128-0.32 0.128-0.448 0.032-0.128-0.128-0.128-0.32-0.032-0.448l2.592-2.816c0.064-0.064 0.16-0.128 0.288-0.096 0.096 0 0.192 0.064 0.256 0.16l4.096 7.616 2.592-3.648c0.064-0.096 0.16-0.128 0.288-0.128 0.096 0 0.192 0.064 0.256 0.16l7.36 12.512c0.096 0.16 0.032 0.352-0.128 0.448-0.064 0.032-0.096 0.032-0.16 0.032z"></path>
<path d="M6.304 30.208c-0.704 0-1.408-0.192-2.016-0.576-0.864-0.544-1.472-1.408-1.696-2.4s-0.064-2.016 0.48-2.88c0.544-0.864 1.408-1.472 2.4-1.696 2.048-0.48 4.128 0.832 4.576 2.88v0c0.48 2.048-0.832 4.128-2.88 4.576-0.288 0.064-0.576 0.096-0.864 0.096zM6.304 23.2c-0.224 0-0.48 0.032-0.704 0.064-0.832 0.192-1.536 0.704-1.984 1.408-0.448 0.736-0.608 1.568-0.416 2.4s0.704 1.536 1.408 1.984c0.736 0.448 1.568 0.608 2.4 0.416 1.728-0.384 2.784-2.112 2.4-3.808-0.32-1.472-1.632-2.464-3.104-2.464z"></path>
<path d="M6.304 31.552c-0.96 0-1.92-0.256-2.752-0.8-1.184-0.736-1.984-1.888-2.304-3.232-0.64-2.784 1.12-5.568 3.904-6.208s5.568 1.12 6.208 3.904v0c0.64 2.784-1.12 5.568-3.904 6.208-0.384 0.096-0.768 0.128-1.152 0.128zM6.304 21.824c-0.32 0-0.672 0.032-1.024 0.128-2.432 0.544-3.968 3.008-3.392 5.44 0.256 1.184 0.992 2.176 2.016 2.848 1.024 0.64 2.24 0.864 3.424 0.576 2.432-0.544 3.968-3.008 3.424-5.44v0c-0.512-2.112-2.368-3.552-4.448-3.552z"></path>
<path d="M21.216 26.816c-1.76 0-3.328-1.216-3.744-2.976-0.48-2.048 0.832-4.128 2.88-4.576 2.048-0.48 4.128 0.832 4.576 2.88 0.224 0.992 0.064 2.016-0.48 2.88s-1.408 1.472-2.4 1.696c-0.256 0.064-0.544 0.096-0.832 0.096zM21.216 19.808c-0.224 0-0.48 0.032-0.704 0.064-1.728 0.384-2.784 2.112-2.4 3.808 0.384 1.728 2.112 2.784 3.808 2.4 0.832-0.192 1.536-0.704 1.984-1.408 0.448-0.736 0.608-1.568 0.416-2.4v0c-0.32-1.472-1.664-2.464-3.104-2.464z"></path>
<path d="M21.216 28.16c-2.368 0-4.512-1.632-5.056-4.032-0.64-2.784 1.12-5.568 3.904-6.208s5.568 1.12 6.208 3.904v0c0.32 1.344 0.064 2.72-0.672 3.904s-1.888 1.984-3.232 2.304c-0.384 0.096-0.768 0.128-1.152 0.128zM21.216 18.432c-0.32 0-0.672 0.032-0.992 0.128-2.432 0.544-3.968 3.008-3.424 5.44s3.008 3.968 5.44 3.424c1.184-0.256 2.176-0.992 2.848-2.016 0.64-1.024 0.864-2.24 0.576-3.424-0.512-2.112-2.368-3.552-4.448-3.552z"></path>
<path d="M6.304 26.688c-0.096 0-0.192-0.032-0.256-0.096-0.064-0.096-0.096-0.224-0.064-0.32l2.816-7.296c0.064-0.16 0.256-0.256 0.416-0.192s0.256 0.256 0.192 0.416l-2.592 6.72 6.048-1.376c0.16-0.032 0.352 0.064 0.384 0.256 0.032 0.16-0.064 0.352-0.256 0.384l-6.624 1.504c0 0-0.032 0-0.064 0z"></path>
<path d="M14.24 23.776c-0.032 0-0.096 0-0.128-0.032-0.16-0.064-0.224-0.256-0.16-0.416l2.656-5.696-2.944 0.672c-0.16 0.032-0.352-0.064-0.384-0.256-0.032-0.16 0.064-0.352 0.256-0.384l3.584-0.8c0.128-0.032 0.256 0 0.32 0.096s0.096 0.224 0.032 0.352l-2.912 6.272c-0.096 0.096-0.192 0.192-0.32 0.192z"></path>
<path d="M21.216 23.296c-0.096 0-0.192-0.032-0.256-0.128l-5.056-7.232c-0.096-0.16-0.064-0.352 0.096-0.448s0.352-0.064 0.448 0.096l0.064 0.096 4.992 7.168c0.096 0.16 0.064 0.352-0.064 0.448-0.096 0-0.16 0-0.224 0z"></path>
<path d="M6.304 27.68c-0.256 0-0.48-0.064-0.704-0.192-0.288-0.192-0.512-0.48-0.576-0.8-0.064-0.352-0.032-0.672 0.16-0.992 0.192-0.288 0.48-0.512 0.8-0.576 0.352-0.064 0.672-0.032 0.992 0.16 0.288 0.192 0.512 0.48 0.576 0.8s0.032 0.672-0.16 0.992c-0.192 0.288-0.48 0.512-0.8 0.576-0.096 0.032-0.192 0.032-0.288 0.032zM6.304 25.728c-0.064 0-0.096 0-0.16 0.032-0.16 0.032-0.32 0.128-0.416 0.288s-0.128 0.32-0.096 0.512c0.032 0.16 0.128 0.32 0.288 0.416s0.32 0.128 0.512 0.096c0.16-0.032 0.32-0.128 0.416-0.288s0.128-0.32 0.096-0.512v0c-0.032-0.16-0.128-0.32-0.288-0.416-0.096-0.096-0.224-0.128-0.352-0.128z"></path>
<path d="M21.216 23.872c-0.416 0-0.768-0.288-0.864-0.704-0.096-0.48 0.192-0.96 0.672-1.088 0.48-0.096 0.96 0.192 1.088 0.672 0 0 0 0 0 0 0.096 0.48-0.192 0.96-0.672 1.088-0.096 0.032-0.16 0.032-0.224 0.032zM21.216 22.72c-0.032 0-0.032 0-0.064 0-0.128 0.032-0.224 0.16-0.192 0.32 0.032 0.128 0.16 0.224 0.32 0.192 0.128-0.032 0.224-0.16 0.192-0.32v0c-0.032-0.096-0.128-0.192-0.256-0.192z"></path>
<path d="M11.392 9.824c-1.024 0-1.952-0.704-2.176-1.728-0.032-0.192-0.064-0.416-0.064-0.608s0.16-0.32 0.32-0.32c0.192 0 0.32 0.16 0.32 0.32 0 0.128 0 0.288 0.032 0.416 0.192 0.864 1.056 1.408 1.92 1.216 0.064 0 0.096-0.032 0.16-0.032 0.8-0.256 1.248-1.056 1.056-1.888-0.032-0.128-0.096-0.288-0.16-0.416-0.096-0.16-0.032-0.352 0.128-0.448s0.352-0.032 0.448 0.128c0.096 0.192 0.16 0.352 0.224 0.576 0.256 1.12-0.384 2.24-1.472 2.624-0.064 0.032-0.128 0.032-0.224 0.064-0.16 0.064-0.352 0.096-0.512 0.096z"></path>
<path d="M15.808 15.104c-0.064 0-0.128-0.032-0.192-0.064l-2.368-1.728c-0.032-0.032-0.032-0.032-0.064-0.064l-0.992-1.216c-0.096-0.128-0.096-0.352 0.064-0.448 0.128-0.096 0.352-0.096 0.448 0.064l0.96 1.184 2.336 1.696c0.128 0.096 0.16 0.288 0.064 0.448-0.064 0.064-0.16 0.128-0.256 0.128z"></path>
<path d="M15.616 15.808c-0.064 0-0.096 0-0.16-0.032l-2.688-1.184c-0.032 0-0.064-0.032-0.096-0.064l-1.888-1.728c-0.128-0.128-0.128-0.32-0.032-0.448 0.128-0.128 0.32-0.128 0.448-0.032l1.856 1.696 2.656 1.184c0.096 0.032 0.16 0.128 0.192 0.224 0.032 0.16-0.064 0.352-0.256 0.384 0 0-0.032 0-0.032 0z"></path>
<path d="M6.304 17.76c-0.16 0-0.288-0.096-0.32-0.256-0.32-1.408 1.312-4.8 2.336-6.304 0.608-0.896 1.184-1.376 1.824-1.472 0.416-0.064 0.832 0.096 1.216 0.416 0.544 0.48 1.44 1.6 1.472 1.632 0.096 0.096 0.096 0.256 0.032 0.384l-0.832 1.28c-0.064 0.064-0.128 0.128-0.224 0.128s-0.192-0.032-0.256-0.096l-0.416-0.352-1.248 3.328c-0.064 0.16-0.256 0.256-0.416 0.192s-0.256-0.256-0.192-0.416l1.408-3.776c0.032-0.096 0.128-0.16 0.224-0.192s0.224 0 0.288 0.064l0.48 0.448 0.48-0.736c-0.288-0.32-0.864-1.024-1.248-1.376-0.256-0.224-0.48-0.288-0.704-0.256-0.416 0.064-0.896 0.48-1.376 1.184-1.056 1.6-2.496 4.736-2.24 5.792 0.032 0.16-0.064 0.352-0.256 0.384 0.032 0 0 0-0.032 0z"></path>
<path d="M12.224 19.68c-1.184 0-5.76-0.128-6.208-2.176-0.032-0.16 0.064-0.32 0.192-0.384l3.264-1.12c0.064-0.032 0.16-0.032 0.224 0l4.288 1.632c0.096 0.032 0.192 0.128 0.192 0.224s0 0.224-0.096 0.288l-1.44 1.408c-0.064 0.064-0.128 0.096-0.224 0.096-0.032 0.032-0.096 0.032-0.192 0.032zM6.72 17.632c0.704 1.152 4.16 1.408 5.568 1.408l0.992-0.96-3.68-1.44-2.88 0.992z"></path>
<path d="M13.056 25.984c-0.16 0-0.288-0.128-0.32-0.288l-0.832-6.304c0-0.096 0.032-0.224 0.096-0.288l1.44-1.408c0.096-0.096 0.224-0.128 0.32-0.064s0.192 0.16 0.224 0.256l0.032 0.224 0.704 6.784c0.032 0.16-0.096 0.32-0.288 0.352-0.16 0.032-0.32-0.096-0.352-0.288l-0.704-6.336-0.832 0.832 0.832 6.144c0.032 0.16-0.096 0.32-0.288 0.352 0 0.032-0.032 0.032-0.032 0.032z"></path>
<path d="M8.864 7.936c-0.128 0-0.224-0.064-0.288-0.16-0.032-0.032-0.576-1.12-0.128-2.080 0.256-0.576 0.8-0.96 1.632-1.152 3.168-0.704 4.32 1.728 4.32 1.76 0.032 0.096 0.032 0.192 0 0.288s-0.128 0.16-0.224 0.16l-5.216 1.184c-0.032 0-0.064 0-0.096 0zM11.232 5.088c-0.288 0-0.64 0.032-0.992 0.128-0.608 0.128-1.024 0.416-1.184 0.768-0.224 0.448-0.064 0.992 0.032 1.28l4.544-1.024c-0.352-0.448-1.088-1.152-2.4-1.152z"></path>
<path d="M13.248 26.496c-0.128 0-0.256-0.064-0.288-0.192 0 0-0.16-0.384-0.256-0.608-0.032-0.064-0.096-0.288 0-0.48 0.128-0.192 0.352-0.288 0.672-0.384l0.864-0.192c0 0 0.608-0.128 0.832-0.032 0.576 0.224 0.736 0.928 0.736 1.024 0.032 0.16-0.064 0.32-0.256 0.384l-2.304 0.512c0.064-0.032 0.032-0.032 0-0.032zM13.344 25.504c0.032 0.096 0.064 0.192 0.128 0.288l1.696-0.384c-0.064-0.096-0.128-0.192-0.224-0.224-0.032 0-0.32 0.032-0.48 0.064l-0.864 0.192c-0.16 0.032-0.224 0.064-0.256 0.064z"></path>
<path d="M12.032 9.728c-0.096 0-0.192-0.032-0.256-0.128l-1.6-2.144c-0.096-0.128-0.064-0.352 0.064-0.448s0.352-0.064 0.448 0.064l1.6 2.144c0.096 0.128 0.064 0.352-0.064 0.448-0.064 0.032-0.128 0.064-0.192 0.064z"></path>
<path d="M19.456 19.744c-0.48 0-0.896-0.416-0.896-0.896s0.416-0.896 0.896-0.896 0.896 0.416 0.896 0.896-0.384 0.896-0.896 0.896zM19.456 18.56c-0.128 0-0.256 0.128-0.256 0.256s0.128 0.256 0.256 0.256 0.256-0.128 0.256-0.256-0.096-0.256-0.256-0.256z"></path>
</svg>
