<svg width="39" height="38" viewBox="0 0 39 38" fill="none" xmlns="http://www.w3.org/2000/svg">
<path fill-rule="evenodd" clip-rule="evenodd" d="M31.5156 8.61084C32.8599 8.97641 33.9077 10.0302 34.2656 11.3765C34.7291 13.8494 34.9592 16.3605 34.9531 18.8765C34.9602 21.3977 34.73 23.914 34.2656 26.3921C33.9077 27.7384 32.8599 28.7921 31.5156 29.1577C29.0781 29.814 19.3281 29.814 19.3281 29.814C19.3281 29.814 9.57813 29.814 7.14063 29.1421C5.78437 28.7862 4.7229 27.7307 4.35938 26.3765C3.90642 23.9025 3.68671 21.3915 3.70313 18.8765C3.69701 16.3605 3.92719 13.8494 4.39063 11.3765C4.74373 10.0242 5.79241 8.96357 7.14063 8.59521C9.57813 7.93896 19.3281 7.93896 19.3281 7.93896C19.3281 7.93896 29.0781 7.93896 31.5156 8.61084ZM24.3125 18.8765L16.2031 14.189V23.564L24.3125 18.8765Z" fill="#003300"/>
</svg>
